<svg xmlns="http://www.w3.org/2000/svg" width="153.99" height="66.611" viewBox="0 0 153.99 66.611"><rect width="74.674" height="11.053" transform="translate(39.656 55.558)" fill="#fc9c00"/><path d="M32.58,4.286c-.074.02-.144.037-.218.059V12.5C49.709,7.252,51.7,24.264,67.2,20.35V12.659a19.425,19.425,0,0,1-4.052.489c-5.271,0-8.945-2.491-12.525-4.918-4.592-3.113-8.954-6.058-16.708-4.291-.436.1-.876.213-1.334.347M59.022,9.11a27.779,27.779,0,0,1-7.446-3.986C46.524,1.7,41.3-1.843,31.6,1.091l-.314.1V2.959l.808-.245c8.917-2.7,13.584.465,18.523,3.814,3.5,2.371,7.1,4.789,12.181,4.9.045,0,.088.007.134.008.072,0,.137.012.21.012.459,0,.953-.055,1.436-.1.2-.017.39-.014.6-.039a21.075,21.075,0,0,0,2.774-.5l.411-.1V11.6c9.054,1.772,13.4,11.8,25.5,8.749V12.659a19.433,19.433,0,0,1-4.052.489c-5.272,0-8.946-2.491-12.525-4.918C72.69,5.116,68.327,2.172,60.573,3.939c-.436.1-.876.213-1.334.347-.074.02-.143.037-.218.059ZM85.253,9a29.2,29.2,0,0,1-7.017-3.871C73.184,1.7,67.959-1.843,58.265,1.091l-.291.088V2.952l.783-.237c8.917-2.7,13.584.465,18.524,3.814,3.365,2.282,6.833,4.593,11.616,4.865.209.013.415.032.628.037.1,0,.183.016.28.016.352,0,.736-.05,1.1-.073.292-.02.572-.021.876-.058a20.9,20.9,0,0,0,2.826-.5l.393-.1v1.063c8.981,2.039,13.172,11.583,25.084,8.575V12.659a19.425,19.425,0,0,1-4.052.489c-5.271,0-8.945-2.491-12.525-4.918C98.921,5.116,94.559,2.171,86.8,3.939c-.435.1-.874.212-1.331.346-.075.021-.146.038-.221.06Zm35.59,1.816.387-.1V8.964l-.8.2c-7.286,1.839-11.5-1.017-15.96-4.042C99.415,1.7,94.19-1.843,84.5,1.091l-.3.09V2.953l.789-.238c8.917-2.7,13.584.465,18.523,3.814,3.579,2.427,7.254,4.918,12.525,4.918a19.572,19.572,0,0,0,4.806-.635" transform="translate(0.735 0)" fill="#008fd7"/><path d="M5.7,45.353c0,.824-.486,1.295-2,1.295-.207,0-.972-.014-1.209-.014V43.882h1.65c1.179,0,1.562.6,1.562,1.309Zm-.059-4.381c0,.633-.339,1.162-1.5,1.162H2.485V39.589c.207-.014.884-.014,1.12-.014,1.518,0,2.033.367,2.033,1.177Zm2.5,4.44v-.221a2.344,2.344,0,0,0-1.309-2.176,2.325,2.325,0,0,0,1.236-2.161V40.59c0-2.338-1.869-3.072-4.652-3.072a22.737,22.737,0,0,0-2.634.162c-.573.088-.779.294-.779.955v8.938c0,.661.22.852.809.955A18.766,18.766,0,0,0,3.5,48.7c2.547,0,4.635-.705,4.635-3.292m8.98,2.792V46.838a.3.3,0,0,0-.295-.294H13.835c-.691,0-.942-.235-.942-1v-1.56h3.813A.3.3,0,0,0,17,43.691V42.3A.3.3,0,0,0,16.706,42H12.893V40.663c0-.766.251-1,.942-1h2.989a.3.3,0,0,0,.295-.294V38c0-.19-.088-.264-.295-.294a17.265,17.265,0,0,0-2.841-.19c-1.9,0-3.589.47-3.589,3.145v4.881c0,2.674,1.676,3.16,3.575,3.16a17.508,17.508,0,0,0,2.856-.19c.207-.03.295-.118.295-.309m9.731.074V46.662a.271.271,0,0,0-.295-.264H22.581c-.1,0-.163-.044-.163-.1a.313.313,0,0,1,.074-.162l4.151-6.353a.727.727,0,0,0,.118-.382s.015-.587.015-.985c0-.2-.015-.352-.015-.352,0-.279-.279-.411-.589-.411H19.827a.283.283,0,0,0-.295.279v1.616a.283.283,0,0,0,.295.278h3.665c.1,0,.163.044.163.118a.242.242,0,0,1-.059.147l-4.107,6.205a1.067,1.067,0,0,0-.22.647v1.175c0,.323.264.455.6.455h6.683a.3.3,0,0,0,.295-.294m4.871,0V37.93a.27.27,0,0,0-.279-.279H29.47a.259.259,0,0,0-.265.279V48.278a.271.271,0,0,0,.265.294h1.971a.282.282,0,0,0,.279-.294m9.333-.074V46.838a.3.3,0,0,0-.295-.294H37.77c-.692,0-.942-.235-.942-1v-1.56h3.813a.3.3,0,0,0,.295-.294V42.3A.3.3,0,0,0,40.641,42H36.829V40.663c0-.766.25-1,.942-1h2.989a.3.3,0,0,0,.295-.294V38c0-.19-.089-.264-.295-.294a17.266,17.266,0,0,0-2.841-.19c-1.9,0-3.589.47-3.589,3.145v4.881c0,2.674,1.676,3.16,3.575,3.16a17.508,17.508,0,0,0,2.856-.19c.206-.03.295-.118.295-.309m8.024-7.056c0,1-.486,1.4-2.033,1.4-.162,0-.884-.014-1.046-.029V39.692c.177-.014.943-.044,1.149-.044,1.237,0,1.929.411,1.929,1.309ZM51.947,48.4a.389.389,0,0,0-.044-.162l-2.222-4.146a2.961,2.961,0,0,0,1.9-2.939v-.191c0-2.6-1.927-3.439-4.43-3.439a23.42,23.42,0,0,0-2.988.19c-.456.074-.662.206-.662.705v9.865a.294.294,0,0,0,.294.294h1.913A.294.294,0,0,0,46,48.278V44.543c.28,0,.737.03,1.046.03l.162-.015,1.974,3.72c.073.146.132.294.294.294h2.251c.162,0,.221-.074.221-.176m8.729-8.807V38.106a.257.257,0,0,0-.221-.264,16.218,16.218,0,0,0-3.12-.323c-2.856,0-3.768,1.249-3.768,2.865a3.006,3.006,0,0,0,1.735,2.81L57.336,44.4c.766.455.972.691.972,1.118,0,.705-.295,1.029-1.311,1.029-.575,0-2.193-.117-2.8-.176h-.045a.244.244,0,0,0-.264.279v1.439c0,.162.147.25.294.294a10.918,10.918,0,0,0,2.782.323c2.989,0,4.018-1.66,4.018-3.218A3.148,3.148,0,0,0,59,42.5l-1.884-1.014c-.8-.427-.987-.618-.987-1.03,0-.529.309-.779,1.148-.779,1,0,2.708.132,3.121.162h.03a.225.225,0,0,0,.25-.251m11.069-2.071c-2.237,0-4.355,1.161-4.355,4.659v1.854c0,3.5,2.118,4.673,4.355,4.673a8.361,8.361,0,0,0,2.194-.25c.206-.058.323-.132.323-.338V46.692a.259.259,0,0,0-.279-.294H73.94c-.56.044-1.369.118-2.179.118-1.016,0-1.826-.53-1.826-2.485V42.177c0-1.956.81-2.485,1.826-2.485.81,0,1.619.074,2.179.118h.044a.259.259,0,0,0,.279-.294V38.091c0-.206-.118-.265-.323-.323a8.361,8.361,0,0,0-2.194-.25m9.731,6.366H79.284l.9-4.06c.03-.146.074-.22.207-.22s.162.074.191.22Zm3.547,4.452a.627.627,0,0,1-.014-.074l-2.193-9.114a2.636,2.636,0,0,0-4.873,0L75.75,48.263a.627.627,0,0,1-.014.074.228.228,0,0,0,.25.235h2.061a.313.313,0,0,0,.295-.265l.529-2.41h3.018l.53,2.41a.312.312,0,0,0,.294.265h2.061a.227.227,0,0,0,.25-.235m7.464-7.144c0,1-.574,1.486-1.885,1.486-.162,0-1.031-.015-1.193-.03v-3c.177-.014.988-.044,1.193-.044,1.237,0,1.885.411,1.885,1.456Zm2.5,0V41.06c0-2.763-2.192-3.542-4.416-3.542a21.839,21.839,0,0,0-2.988.19c-.455.074-.661.206-.661.705v9.879a.282.282,0,0,0,.294.279h1.9a.294.294,0,0,0,.294-.294V44.705c.368.015.84.044,1.193.044,2.194,0,4.387-.808,4.387-3.557m12.264,2.867c0,1.986-.855,2.515-2.18,2.515-.368,0-.839-.014-1.046-.03V39.678c.207-.015.678-.03,1.046-.03,1.325,0,2.18.529,2.18,2.515Zm-2.18-6.541a22.194,22.194,0,0,0-3.135.22.443.443,0,0,0-.426.514V47.97a.443.443,0,0,0,.426.514,22.194,22.194,0,0,0,3.135.22c2.93,0,4.695-1.542,4.695-4.645v-1.9c0-3.1-1.765-4.645-4.695-4.645m9.392.058a.429.429,0,0,0,.03-.118.159.159,0,0,0-.176-.162h-1.752c-.147,0-.25.074-.295.279l-.794,3.22a.436.436,0,0,0-.015.132c0,.089.03.147.133.147h1.486c.147,0,.207-.088.28-.279Zm6.978,6.308H119.25l.9-4.06c.03-.146.074-.22.206-.22s.163.074.191.22Zm3.547,4.452a.627.627,0,0,1-.014-.074l-2.193-9.114a2.636,2.636,0,0,0-4.873,0l-2.193,9.114a.59.59,0,0,1-.015.074.228.228,0,0,0,.251.235h2.06a.313.313,0,0,0,.295-.265l.53-2.41h3.017l.53,2.41a.313.313,0,0,0,.295.265h2.06a.228.228,0,0,0,.251-.235m9.111-8.7V38.076c0-.132-.1-.19-.25-.22a13.959,13.959,0,0,0-3.076-.338c-2.136,0-4.475.94-4.475,4.689v1.824c0,3.718,2.516,4.673,4.194,4.673a15.982,15.982,0,0,0,3.3-.308c.221-.044.295-.132.295-.338V43.119a.3.3,0,0,0-.295-.295h-1.882a.283.283,0,0,0-.279.295V46.5c-.354.03-.723.044-1.135.044-.722,0-1.65-.47-1.65-2.5V42.207c0-1.926.737-2.5,1.93-2.5,1.252,0,2.354.089,3.06.118h.044c.133,0,.221-.029.221-.19m8.319,4.426c0,1.986-.855,2.515-2.18,2.515-.368,0-.839-.014-1.046-.03V39.678c.207-.015.678-.03,1.046-.03,1.325,0,2.18.529,2.18,2.515Zm2.515,0v-1.9c0-3.1-1.765-4.645-4.695-4.645a22.164,22.164,0,0,0-3.134.22.444.444,0,0,0-.427.514V47.97a.444.444,0,0,0,.427.514,22.165,22.165,0,0,0,3.134.22c2.93,0,4.695-1.542,4.695-4.645m4.829,1.485v-1.56h3.813a.3.3,0,0,0,.295-.294V42.3a.3.3,0,0,0-.295-.294h-3.813V40.663c0-.766.251-1,.942-1H153.7a.3.3,0,0,0,.295-.294V38c0-.19-.089-.264-.295-.294a17.266,17.266,0,0,0-2.841-.19c-1.9,0-3.589.47-3.589,3.145v4.881c0,2.674,1.676,3.16,3.575,3.16a17.509,17.509,0,0,0,2.856-.19c.206-.03.295-.118.295-.309V46.838a.3.3,0,0,0-.295-.294h-2.989c-.691,0-.942-.235-.942-1" transform="translate(0 0.877)" fill="#008fd7"/><path d="M43.134,30.887H40.7l1-3.625c.034-.121.1-.2.221-.2s.176.078.21.2ZM44.9,34.454a.171.171,0,0,0,.187-.177.185.185,0,0,0-.011-.077l-2.04-7.181a1.069,1.069,0,0,0-1.114-.824,1.085,1.085,0,0,0-1.125.835l-2.04,7.17a.184.184,0,0,0-.011.077.177.177,0,0,0,.187.177h.651a.224.224,0,0,0,.2-.166l.705-2.533h2.857l.716,2.533a.2.2,0,0,0,.188.166Zm8.954.021a.155.155,0,0,0,.111-.154v-.561a.119.119,0,0,0-.122-.132H51.713c-1.169,0-1.356-.309-1.356-1.146v-1.85h3.385a.221.221,0,0,0,.221-.22v-.418a.221.221,0,0,0-.221-.22H50.357V28.242c0-.837.187-1.145,1.356-1.145h2.128a.119.119,0,0,0,.122-.132v-.551a.155.155,0,0,0-.111-.154c-.463-.044-1.5-.066-2.15-.066-1.543,0-2.347.582-2.347,2.047v4.24c0,1.465.8,2.048,2.347,2.048.651,0,1.732-.011,2.15-.055m6.871-4.3c-.254,0-.728-.011-1.214-.021V27.129c.265-.033.872-.033,1.214-.033,1.379,0,2.1.363,2.1,1.465v.078c0,1.189-.739,1.531-2.1,1.531m3.253,4.283a.139.139,0,0,0,.143-.143.179.179,0,0,0-.033-.1L62.08,30.863a2.166,2.166,0,0,0,1.73-2.224v-.078c0-1.784-1.344-2.366-3.087-2.366-.64,0-1.467.033-1.941.088-.2.021-.264.088-.264.242v7.708a.21.21,0,0,0,.2.221h.595a.21.21,0,0,0,.2-.221V31c.585.021.85.033,1.214.033h.287l1.974,3.282c.088.143.155.143.287.143Zm9.055-3.381c0,1.85-.761,2.556-1.963,2.556s-1.975-.705-1.975-2.556V29.652c0-1.852.773-2.556,1.975-2.556s1.963.7,1.963,2.556Zm1.013,0V29.652c0-2.446-1.245-3.457-2.976-3.457s-2.989,1.011-2.989,3.457v1.421c0,2.445,1.256,3.457,2.989,3.457s2.976-1.012,2.976-3.457m8.79-2.346c0,1.145-.573,1.63-2.085,1.63-.287,0-.85-.033-1.1-.044V27.085c.265-.023.761-.044,1.1-.044,1.424,0,2.085.43,2.085,1.542Zm1,0v-.143c0-1.774-1.3-2.389-3.088-2.389a17.645,17.645,0,0,0-1.83.088.269.269,0,0,0-.264.274v7.675a.21.21,0,0,0,.2.221h.595a.21.21,0,0,0,.2-.221V31.139c.288.021.75.055,1.1.055,1.787,0,3.088-.627,3.088-2.467m9.2,2.346c0,1.85-.761,2.556-1.964,2.556S89.1,32.924,89.1,31.073V29.652c0-1.852.772-2.556,1.974-2.556s1.964.7,1.964,2.556Zm1.012,0V29.652c0-2.446-1.245-3.457-2.976-3.457s-2.988,1.011-2.988,3.457v1.421c0,2.445,1.256,3.457,2.988,3.457s2.976-1.012,2.976-3.457m6.815-.9c-.254,0-.728-.011-1.213-.021V27.129c.265-.033.871-.033,1.213-.033,1.38,0,2.1.363,2.1,1.465v.078c0,1.189-.739,1.531-2.1,1.531m3.253,4.283a.139.139,0,0,0,.143-.143.172.172,0,0,0-.033-.1l-2.006-3.348a2.166,2.166,0,0,0,1.731-2.224v-.078c0-1.784-1.344-2.366-3.088-2.366-.64,0-1.467.033-1.94.088-.2.021-.264.088-.264.242v7.708a.21.21,0,0,0,.2.221h.595a.21.21,0,0,0,.2-.221V31c.584.021.85.033,1.213.033h.288l1.974,3.282c.088.143.155.143.287.143Zm9.308-7.5v-.484a.194.194,0,0,0-.21-.2h-5.3a.21.21,0,0,0-.22.2v.484c0,.121.1.176.22.176h2.15v7.1a.21.21,0,0,0,.2.221h.6a.21.21,0,0,0,.2-.221v-7.1h2.15c.122,0,.21-.067.21-.176" transform="translate(0.911 0.616)" fill="#008fd7"/><path d="M107.65,60.245H105.92v-.059c0-.705.313-1.026.875-1.026s.856.288.856,1.026Zm.579.293v-.352a1.35,1.35,0,0,0-1.435-1.527,1.367,1.367,0,0,0-1.449,1.527v.587a1.37,1.37,0,0,0,1.482,1.566A5.924,5.924,0,0,0,108,62.228c.1-.019.131-.066.131-.149v-.222a.092.092,0,0,0-.1-.091h-.033a9.055,9.055,0,0,1-1.162.072c-.6,0-.908-.288-.908-1.064v-.092h2.186c.079,0,.124-.058.124-.143m-4.125,1.625V58.834a.13.13,0,0,0-.13-.13h-.313a.13.13,0,0,0-.13.13v3.328a.131.131,0,0,0,.13.131h.313a.131.131,0,0,0,.13-.131M104.118,58v-.521a.132.132,0,0,0-.131-.131h-.332a.132.132,0,0,0-.131.131V58a.131.131,0,0,0,.131.131h.332a.131.131,0,0,0,.131-.131m-1.939,4.165V60.015c0-.868-.352-1.357-1.135-1.357a1.975,1.975,0,0,0-1.039.3v-.124a.125.125,0,0,0-.124-.13h-.325a.125.125,0,0,0-.124.13v3.328a.13.13,0,0,0,.124.131h.319a.135.135,0,0,0,.13-.131V59.408a2.069,2.069,0,0,1,.882-.255c.5,0,.717.2.717.862v2.147a.132.132,0,0,0,.131.131h.312a.131.131,0,0,0,.131-.131m-4.6-.555a1.8,1.8,0,0,1-.882.262c-.379,0-.6-.124-.6-.595V61.2c0-.464.209-.641,1-.641h.483Zm.573.555V59.885c0-.771-.365-1.227-1.272-1.227a5.6,5.6,0,0,0-1.012.085c-.091.013-.136.052-.136.124V59.1c0,.085.058.1.117.1h.033a9.363,9.363,0,0,1,1-.052c.51,0,.7.189.7.738v.261H97.1c-1.163,0-1.573.352-1.573,1.057v.079a.95.95,0,0,0,1.063,1.056,1.992,1.992,0,0,0,1.005-.319v.143a.132.132,0,0,0,.131.131h.3A.131.131,0,0,0,98.152,62.163Zm-3.5.033v-.228c0-.064-.046-.091-.137-.091h-.365c-.261,0-.352-.052-.352-.411V59.186h.7a.131.131,0,0,0,.131-.13v-.222a.131.131,0,0,0-.131-.13h-.7v-.711a.1.1,0,0,0-.1-.112h-.019l-.339.052a.134.134,0,0,0-.118.131v.64h-.633a.115.115,0,0,0-.125.117V59c0,.072.052.112.125.118l.633.072v2.278c0,.717.287.874.887.874a3.186,3.186,0,0,0,.424-.033c.085-.012.118-.052.118-.111m-3.264-.033V58.834a.13.13,0,0,0-.13-.13h-.313a.13.13,0,0,0-.13.13v3.328a.131.131,0,0,0,.13.131h.313a.131.131,0,0,0,.13-.131M91.4,58v-.521a.131.131,0,0,0-.13-.131h-.333a.131.131,0,0,0-.13.131V58a.13.13,0,0,0,.13.131h.333A.13.13,0,0,0,91.4,58m-1.782,4.126v-.234a.1.1,0,0,0-.111-.1h-.027a6.333,6.333,0,0,1-.81.046c-.528,0-.816-.353-.816-1.084v-.51c0-.737.294-1.084.816-1.084a6.332,6.332,0,0,1,.81.046h.027a.1.1,0,0,0,.111-.1v-.235c0-.091-.026-.124-.13-.143a4.836,4.836,0,0,0-.817-.072c-.894,0-1.389.626-1.389,1.585v.51c0,.96.5,1.585,1.389,1.585a4.776,4.776,0,0,0,.817-.072c.1-.019.13-.058.13-.143m-3.342,0v-.234a.1.1,0,0,0-.111-.1h-.027a6.333,6.333,0,0,1-.81.046c-.528,0-.816-.353-.816-1.084v-.51c0-.737.294-1.084.816-1.084a6.333,6.333,0,0,1,.81.046h.027a.1.1,0,0,0,.111-.1v-.235c0-.091-.026-.124-.13-.143a4.836,4.836,0,0,0-.817-.072c-.894,0-1.389.626-1.389,1.585v.51c0,.96.5,1.585,1.389,1.585a4.776,4.776,0,0,0,.817-.072c.1-.019.13-.058.13-.143M82.234,60.29c0,1.1-.45,1.515-1.162,1.515S79.9,61.387,79.9,60.29v-.842c0-1.1.456-1.514,1.169-1.514s1.162.418,1.162,1.514Zm.6,0v-.842c0-1.449-.737-2.049-1.761-2.049S79.3,58,79.3,59.447v.842c0,1.449.743,2.049,1.769,2.049s1.761-.6,1.761-2.049M66.334,62.2v-.228c0-.064-.046-.091-.137-.091h-.365c-.261,0-.353-.052-.353-.411V59.186h.705a.131.131,0,0,0,.131-.13v-.222a.131.131,0,0,0-.131-.13h-.705v-.711a.1.1,0,0,0-.1-.112h-.019l-.34.052a.133.133,0,0,0-.117.131v.64h-.634a.114.114,0,0,0-.124.117V59a.119.119,0,0,0,.124.118l.634.072v2.278c0,.717.287.874.886.874a3.2,3.2,0,0,0,.425-.033c.085-.012.118-.052.118-.111m-3.251-.033V57.51a.119.119,0,0,0-.118-.124h-.339a.118.118,0,0,0-.118.124v4.653a.125.125,0,0,0,.118.131h.339a.125.125,0,0,0,.118-.131m-1.919,0V58.834a.129.129,0,0,0-.124-.13h-.319a.135.135,0,0,0-.13.13V61.59a2.082,2.082,0,0,1-.882.254c-.5,0-.718-.2-.718-.861V58.834a.13.13,0,0,0-.13-.13h-.313a.13.13,0,0,0-.13.13v2.148c0,.868.352,1.356,1.135,1.356a1.966,1.966,0,0,0,1.039-.3v.124a.126.126,0,0,0,.124.131h.325A.126.126,0,0,0,61.164,62.163Zm-4.6-.555a1.8,1.8,0,0,1-.881.262c-.38,0-.6-.124-.6-.595V61.2c0-.464.209-.641,1-.641h.483Zm.573.555V59.885c0-.771-.364-1.227-1.272-1.227a5.573,5.573,0,0,0-1.011.085c-.092.013-.137.052-.137.124V59.1c0,.085.058.1.118.1h.032a9.363,9.363,0,0,1,1-.052c.51,0,.7.189.7.738v.261H56.08c-1.163,0-1.573.352-1.573,1.057v.079a.95.95,0,0,0,1.063,1.056,2,2,0,0,0,1.006-.319v.143a.131.131,0,0,0,.13.131h.3A.131.131,0,0,0,57.137,62.163ZM53.8,59.043v-.267c0-.079-.046-.118-.137-.118a1.559,1.559,0,0,0-.92.313v-.137a.125.125,0,0,0-.125-.13h-.306a.125.125,0,0,0-.124.13v3.328a.131.131,0,0,0,.124.131h.319a.136.136,0,0,0,.131-.131V59.429a1.663,1.663,0,0,1,.9-.275c.091,0,.137-.039.137-.111m-3.166-1.788c0-.033-.026-.045-.072-.045h-.431c-.078,0-.1.026-.157.1l-.64.81a.1.1,0,0,0-.027.066c0,.026.02.045.059.045h.352c.073,0,.092-.033.15-.1l.738-.823a.077.077,0,0,0,.026-.052m-.2,2.99H48.7v-.059c0-.705.313-1.026.875-1.026s.856.288.856,1.026Zm.58.293v-.352a1.351,1.351,0,0,0-1.436-1.527,1.366,1.366,0,0,0-1.448,1.527v.587a1.37,1.37,0,0,0,1.481,1.566,5.925,5.925,0,0,0,1.168-.111c.1-.019.131-.066.131-.149v-.222a.092.092,0,0,0-.1-.091h-.033a9.054,9.054,0,0,1-1.162.072c-.6,0-.908-.288-.908-1.064v-.092h2.187c.078,0,.124-.058.124-.143M46.9,62.163V57.575a.13.13,0,0,0-.13-.131H46.44a.131.131,0,0,0-.131.131v1.892H44.077V57.575a.131.131,0,0,0-.131-.131h-.333a.13.13,0,0,0-.13.131v4.587a.131.131,0,0,0,.13.131h.333a.132.132,0,0,0,.131-.131V60h2.232v2.167a.132.132,0,0,0,.131.131h.333a.131.131,0,0,0,.13-.131" transform="translate(1.022 1.345)" fill="#fff"/><path d="M107.65,60.245H105.92v-.059c0-.705.313-1.026.875-1.026s.856.288.856,1.026Zm.579.293v-.352a1.35,1.35,0,0,0-1.435-1.527,1.367,1.367,0,0,0-1.449,1.527v.587a1.37,1.37,0,0,0,1.482,1.566A5.924,5.924,0,0,0,108,62.228c.1-.019.131-.066.131-.149v-.222a.092.092,0,0,0-.1-.091h-.033a9.055,9.055,0,0,1-1.162.072c-.6,0-.908-.288-.908-1.064v-.092h2.186C108.185,60.681,108.23,60.622,108.23,60.537Zm-4.125,1.625V58.834a.13.13,0,0,0-.13-.13h-.313a.13.13,0,0,0-.13.13v3.328a.131.131,0,0,0,.13.131h.313A.131.131,0,0,0,104.105,62.163ZM104.118,58v-.521a.132.132,0,0,0-.131-.131h-.332a.132.132,0,0,0-.131.131V58a.131.131,0,0,0,.131.131h.332A.131.131,0,0,0,104.118,58Zm-1.939,4.165V60.015c0-.868-.352-1.357-1.135-1.357a1.975,1.975,0,0,0-1.039.3v-.124a.125.125,0,0,0-.124-.13h-.325a.125.125,0,0,0-.124.13v3.328a.13.13,0,0,0,.124.131h.319a.135.135,0,0,0,.13-.131V59.408a2.069,2.069,0,0,1,.882-.255c.5,0,.717.2.717.862v2.147a.132.132,0,0,0,.131.131h.312A.131.131,0,0,0,102.18,62.163Zm-4.6-.555a1.8,1.8,0,0,1-.882.262c-.379,0-.6-.124-.6-.595V61.2c0-.464.209-.641,1-.641h.483Zm.573.555V59.885c0-.771-.365-1.227-1.272-1.227a5.6,5.6,0,0,0-1.012.085c-.091.013-.136.052-.136.124V59.1c0,.085.058.1.117.1h.033a9.363,9.363,0,0,1,1-.052c.51,0,.7.189.7.738v.261H97.1c-1.163,0-1.573.352-1.573,1.057v.079a.95.95,0,0,0,1.063,1.056,1.992,1.992,0,0,0,1.005-.319v.143a.132.132,0,0,0,.131.131h.3A.131.131,0,0,0,98.152,62.163Zm-3.5.033v-.228c0-.064-.046-.091-.137-.091h-.365c-.261,0-.352-.052-.352-.411V59.186h.7a.131.131,0,0,0,.131-.13v-.222a.131.131,0,0,0-.131-.13h-.7v-.711a.1.1,0,0,0-.1-.112h-.019l-.339.052a.134.134,0,0,0-.118.131v.64h-.633a.115.115,0,0,0-.125.117V59c0,.072.052.112.125.118l.633.072v2.278c0,.717.287.874.887.874a3.186,3.186,0,0,0,.424-.033C94.621,62.294,94.654,62.254,94.654,62.2Zm-3.264-.033V58.834a.13.13,0,0,0-.13-.13h-.313a.13.13,0,0,0-.13.13v3.328a.131.131,0,0,0,.13.131h.313A.131.131,0,0,0,91.39,62.163ZM91.4,58v-.521a.131.131,0,0,0-.13-.131h-.333a.131.131,0,0,0-.13.131V58a.13.13,0,0,0,.13.131h.333A.13.13,0,0,0,91.4,58Zm-1.782,4.126v-.234a.1.1,0,0,0-.111-.1h-.027a6.333,6.333,0,0,1-.81.046c-.528,0-.816-.353-.816-1.084v-.51c0-.737.294-1.084.816-1.084a6.332,6.332,0,0,1,.81.046h.027a.1.1,0,0,0,.111-.1v-.235c0-.091-.026-.124-.13-.143a4.836,4.836,0,0,0-.817-.072c-.894,0-1.389.626-1.389,1.585v.51c0,.96.5,1.585,1.389,1.585a4.776,4.776,0,0,0,.817-.072C89.6,62.248,89.621,62.209,89.621,62.124Zm-3.342,0v-.234a.1.1,0,0,0-.111-.1h-.027a6.333,6.333,0,0,1-.81.046c-.528,0-.816-.353-.816-1.084v-.51c0-.737.294-1.084.816-1.084a6.333,6.333,0,0,1,.81.046h.027a.1.1,0,0,0,.111-.1v-.235c0-.091-.026-.124-.13-.143a4.836,4.836,0,0,0-.817-.072c-.894,0-1.389.626-1.389,1.585v.51c0,.96.5,1.585,1.389,1.585a4.776,4.776,0,0,0,.817-.072C86.254,62.248,86.28,62.209,86.28,62.124ZM82.234,60.29c0,1.1-.45,1.515-1.162,1.515S79.9,61.387,79.9,60.29v-.842c0-1.1.456-1.514,1.169-1.514s1.162.418,1.162,1.514Zm.6,0v-.842c0-1.449-.737-2.049-1.761-2.049S79.3,58,79.3,59.447v.842c0,1.449.743,2.049,1.769,2.049S82.834,61.739,82.834,60.29ZM66.334,62.2v-.228c0-.064-.046-.091-.137-.091h-.365c-.261,0-.353-.052-.353-.411V59.186h.705a.131.131,0,0,0,.131-.13v-.222a.131.131,0,0,0-.131-.13h-.705v-.711a.1.1,0,0,0-.1-.112h-.019l-.34.052a.133.133,0,0,0-.117.131v.64h-.634a.114.114,0,0,0-.124.117V59a.119.119,0,0,0,.124.118l.634.072v2.278c0,.717.287.874.886.874a3.2,3.2,0,0,0,.425-.033C66.3,62.294,66.334,62.254,66.334,62.2Zm-3.251-.033V57.51a.119.119,0,0,0-.118-.124h-.339a.118.118,0,0,0-.118.124v4.653a.125.125,0,0,0,.118.131h.339A.125.125,0,0,0,63.083,62.163Zm-1.919,0V58.834a.129.129,0,0,0-.124-.13h-.319a.135.135,0,0,0-.13.13V61.59a2.082,2.082,0,0,1-.882.254c-.5,0-.718-.2-.718-.861V58.834a.13.13,0,0,0-.13-.13h-.313a.13.13,0,0,0-.13.13v2.148c0,.868.352,1.356,1.135,1.356a1.966,1.966,0,0,0,1.039-.3v.124a.126.126,0,0,0,.124.131h.325A.126.126,0,0,0,61.164,62.163Zm-4.6-.555a1.8,1.8,0,0,1-.881.262c-.38,0-.6-.124-.6-.595V61.2c0-.464.209-.641,1-.641h.483Zm.573.555V59.885c0-.771-.364-1.227-1.272-1.227a5.573,5.573,0,0,0-1.011.085c-.092.013-.137.052-.137.124V59.1c0,.085.058.1.118.1h.032a9.363,9.363,0,0,1,1-.052c.51,0,.7.189.7.738v.261H56.08c-1.163,0-1.573.352-1.573,1.057v.079a.95.95,0,0,0,1.063,1.056,2,2,0,0,0,1.006-.319v.143a.131.131,0,0,0,.13.131h.3A.131.131,0,0,0,57.137,62.163ZM53.8,59.043v-.267c0-.079-.046-.118-.137-.118a1.559,1.559,0,0,0-.92.313v-.137a.125.125,0,0,0-.125-.13h-.306a.125.125,0,0,0-.124.13v3.328a.131.131,0,0,0,.124.131h.319a.136.136,0,0,0,.131-.131V59.429a1.663,1.663,0,0,1,.9-.275C53.756,59.154,53.8,59.115,53.8,59.043Zm-3.166-1.788c0-.033-.026-.045-.072-.045h-.431c-.078,0-.1.026-.157.1l-.64.81a.1.1,0,0,0-.027.066c0,.026.02.045.059.045h.352c.073,0,.092-.033.15-.1l.738-.823A.077.077,0,0,0,50.636,57.255Zm-.2,2.99H48.7v-.059c0-.705.313-1.026.875-1.026s.856.288.856,1.026Zm.58.293v-.352a1.351,1.351,0,0,0-1.436-1.527,1.366,1.366,0,0,0-1.448,1.527v.587a1.37,1.37,0,0,0,1.481,1.566,5.925,5.925,0,0,0,1.168-.111c.1-.019.131-.066.131-.149v-.222a.092.092,0,0,0-.1-.091h-.033a9.054,9.054,0,0,1-1.162.072c-.6,0-.908-.288-.908-1.064v-.092h2.187C50.969,60.681,51.015,60.622,51.015,60.537ZM46.9,62.163V57.575a.13.13,0,0,0-.13-.131H46.44a.131.131,0,0,0-.131.131v1.892H44.077V57.575a.131.131,0,0,0-.131-.131h-.333a.13.13,0,0,0-.13.131v4.587a.131.131,0,0,0,.13.131h.333a.132.132,0,0,0,.131-.131V60h2.232v2.167a.132.132,0,0,0,.131.131h.333A.131.131,0,0,0,46.9,62.163Z" transform="translate(1.022 1.345)" fill="none" stroke="#fff" stroke-width="0.05"/><path d="M72.35,56.064a.59.59,0,0,1,.106.111.226.226,0,0,1,.045.09.492.492,0,0,1,0,.086c0,.034.005.409.005.409l-.02.278v.2c.015.014,0,.5.012.5s.014.259.016.28-.009.024-.008.04,0,.115,0,.115a.22.22,0,0,0,0,.057l-.009.336s-.013.145-.046.172a.4.4,0,0,1-.163.027.559.559,0,0,1-.144-.011.377.377,0,0,1-.131-.1.351.351,0,0,1-.041-.107c-.005-.037.009-.163-.005-.167l-.015-.158c-.015-.01-.015-.536-.03-.536v-.1l.021-.078,0-.05a.575.575,0,0,0,.012-.1l0-.276s-.005-.284-.012-.355.007-.323.017-.481.191-.218.255-.225a.2.2,0,0,1,.132.042" transform="translate(1.69 1.317)" fill="#fff"/><path d="M72.35,56.064a.59.59,0,0,1,.106.111.226.226,0,0,1,.045.09.492.492,0,0,1,0,.086c0,.034.005.409.005.409l-.02.278v.2c.015.014,0,.5.012.5s.014.259.016.28-.009.024-.008.04,0,.115,0,.115a.22.22,0,0,0,0,.057l-.009.336s-.013.145-.046.172a.4.4,0,0,1-.163.027.559.559,0,0,1-.144-.011.377.377,0,0,1-.131-.1.351.351,0,0,1-.041-.107c-.005-.037.009-.163-.005-.167l-.015-.158c-.015-.01-.015-.536-.03-.536v-.1l.021-.078,0-.05a.575.575,0,0,0,.012-.1l0-.276s-.005-.284-.012-.355.007-.323.017-.481.191-.218.255-.225a.2.2,0,0,1,.132.042" transform="translate(1.69 1.317)" fill="none" stroke="#fff" stroke-miterlimit="10" stroke-width="0.05"/><path d="M73.263,60.136a.477.477,0,0,1,.271.043c.041.023.325.181.338.192s.289.175.3.192a1.926,1.926,0,0,0,.185.108,2.157,2.157,0,0,0,.212.1c.039.016.61.351.572.321a1.608,1.608,0,0,0,.16.1,2.437,2.437,0,0,1,.223.126l.126.087c.048.046.1.136.085.189s-.124.228-.186.246a.686.686,0,0,1-.243.008c-.068-.012-.1-.072-.16-.086s-.073-.048-.157-.072-.472-.246-.52-.263a1.654,1.654,0,0,1-.2-.145c-.023-.015-.29-.183-.347-.22a2.555,2.555,0,0,0-.341-.181,3.522,3.522,0,0,1-.441-.274c-.051-.039-.065-.157-.084-.2a.2.2,0,0,1,.01-.153.264.264,0,0,1,.192-.121" transform="translate(1.717 1.413)" fill="#fff"/><path d="M73.263,60.136a.477.477,0,0,1,.271.043c.041.023.325.181.338.192s.289.175.3.192a1.926,1.926,0,0,0,.185.108,2.157,2.157,0,0,0,.212.1c.039.016.61.351.572.321a1.608,1.608,0,0,0,.16.1,2.437,2.437,0,0,1,.223.126l.126.087c.048.046.1.136.085.189s-.124.228-.186.246a.686.686,0,0,1-.243.008c-.068-.012-.1-.072-.16-.086s-.073-.048-.157-.072-.472-.246-.52-.263a1.654,1.654,0,0,1-.2-.145c-.023-.015-.29-.183-.347-.22a2.555,2.555,0,0,0-.341-.181,3.522,3.522,0,0,1-.441-.274c-.051-.039-.065-.157-.084-.2a.2.2,0,0,1,.01-.153.264.264,0,0,1,.192-.121" transform="translate(1.717 1.413)" fill="none" stroke="#fff" stroke-miterlimit="10" stroke-width="0.05"/><path d="M75.691,57.7c.044.023.2.169.2.2s.043.077.013.118-.038.144-.1.2a1.021,1.021,0,0,1-.174.1.969.969,0,0,1-.173.1c-.054.015-.286.166-.351.2s-.124.08-.173.1a1.5,1.5,0,0,1-.225.105c-.071.017-.369.2-.4.2s-.191.142-.235.153a1.687,1.687,0,0,1-.288.1c-.066,0-.307.117-.341.105s-.06,0-.108,0-.151-.155-.17-.213a.319.319,0,0,1,0-.2c.025-.048.111-.046.173-.05s.76-.469.864-.5a2.588,2.588,0,0,0,.289-.151c.048-.02.029-.026.058-.051a2.543,2.543,0,0,1,.281-.106c.059-.024.284-.192.236-.153a4.256,4.256,0,0,0,.4-.2.39.39,0,0,1,.224-.05" transform="translate(1.719 1.356)" fill="#fff"/><path d="M75.691,57.7c.044.023.2.169.2.2s.043.077.013.118-.038.144-.1.2a1.021,1.021,0,0,1-.174.1.969.969,0,0,1-.173.1c-.054.015-.286.166-.351.2s-.124.08-.173.1a1.5,1.5,0,0,1-.225.105c-.071.017-.369.2-.4.2s-.191.142-.235.153a1.687,1.687,0,0,1-.288.1c-.066,0-.307.117-.341.105s-.06,0-.108,0-.151-.155-.17-.213a.319.319,0,0,1,0-.2c.025-.048.111-.046.173-.05s.76-.469.864-.5a2.588,2.588,0,0,0,.289-.151c.048-.02.029-.026.058-.051a2.543,2.543,0,0,1,.281-.106c.059-.024.284-.192.236-.153a4.256,4.256,0,0,0,.4-.2.39.39,0,0,1,.224-.05" transform="translate(1.719 1.356)" fill="none" stroke="#fff" stroke-miterlimit="10" stroke-width="0.05"/><path d="M69.1,61.753a.68.68,0,0,1-.126-.143c-.054-.079.046-.243.067-.27s.159-.161.159-.161a1.79,1.79,0,0,0,.169-.082c.02-.005.319-.2.319-.2.036-.01.36-.2.36-.2a.724.724,0,0,0,.1-.05,2.013,2.013,0,0,0,.209-.1c.021,0,.227-.178.267-.2s.261-.1.261-.1l.308-.1a.116.116,0,0,1,.1,0,.544.544,0,0,1,.154.211c.023.055.025.181,0,.2s-.094.019-.157.048-.516.342-.516.342a2.25,2.25,0,0,0-.216.105c-.02,0-.121.135-.158.151s-.209.1-.209.1a2.5,2.5,0,0,0-.308.155c-.037.005-.371.2-.371.2-.038.009-.162.144-.21.15a.307.307,0,0,1-.2-.053" transform="translate(1.621 1.413)" fill="#fff"/><path d="M69.1,61.753a.68.68,0,0,1-.126-.143c-.054-.079.046-.243.067-.27s.159-.161.159-.161a1.79,1.79,0,0,0,.169-.082c.02-.005.319-.2.319-.2.036-.01.36-.2.36-.2a.724.724,0,0,0,.1-.05,2.013,2.013,0,0,0,.209-.1c.021,0,.227-.178.267-.2s.261-.1.261-.1l.308-.1a.116.116,0,0,1,.1,0,.544.544,0,0,1,.154.211c.023.055.025.181,0,.2s-.094.019-.157.048-.516.342-.516.342a2.25,2.25,0,0,0-.216.105c-.02,0-.121.135-.158.151s-.209.1-.209.1a2.5,2.5,0,0,0-.308.155c-.037.005-.371.2-.371.2-.038.009-.162.144-.21.15a.307.307,0,0,1-.2-.053" transform="translate(1.621 1.413)" fill="none" stroke="#fff" stroke-miterlimit="10" stroke-width="0.05"/><path d="M68.992,58.144a.661.661,0,0,1,.079-.242.649.649,0,0,1,.378-.077.559.559,0,0,1,.189.117c.061.051.266.1.562.247a3.634,3.634,0,0,1,.477.285.342.342,0,0,0,.123.042,1.4,1.4,0,0,1,.4.227c.024.039.218.134.244.192a.6.6,0,0,1-.055.309.211.211,0,0,1-.174.1,3,3,0,0,1-.646-.336c-.034-.036-.209-.093-.224-.123a1.189,1.189,0,0,0-.329-.148,3.714,3.714,0,0,1-.618-.321,2.558,2.558,0,0,0-.331-.149c-.015-.018-.073-.091-.073-.121" transform="translate(1.621 1.359)" fill="#fff"/><path d="M68.992,58.144a.661.661,0,0,1,.079-.242.649.649,0,0,1,.378-.077.559.559,0,0,1,.189.117c.061.051.266.1.562.247a3.634,3.634,0,0,1,.477.285.342.342,0,0,0,.123.042,1.4,1.4,0,0,1,.4.227c.024.039.218.134.244.192a.6.6,0,0,1-.055.309.211.211,0,0,1-.174.1,3,3,0,0,1-.646-.336c-.034-.036-.209-.093-.224-.123a1.189,1.189,0,0,0-.329-.148,3.714,3.714,0,0,1-.618-.321,2.558,2.558,0,0,0-.331-.149c-.015-.018-.073-.091-.073-.121" transform="translate(1.621 1.359)" fill="none" stroke="#fff" stroke-miterlimit="10" stroke-width="0.05"/><path d="M72.4,60.738a.3.3,0,0,1,.105.113.525.525,0,0,1,.042.179c0,.08,0,.22,0,.361a3.129,3.129,0,0,1-.019.334,2.571,2.571,0,0,0,.01.33c0-.041-.005.352-.005.315s.009.213.009.213a.688.688,0,0,1,0,.173v.117c-.005.032,0,.3,0,.238s0,.138-.013.2a.274.274,0,0,1-.117.159.346.346,0,0,1-.167-.016.852.852,0,0,1-.2-.1.3.3,0,0,1-.041-.11c-.008-.037.005-.146,0-.169a.634.634,0,0,1-.014-.16c0-.081-.026-.5-.026-.54s.028-.132.024-.18.032-.377.024-.432,0-.235-.009-.357a2.664,2.664,0,0,1,.02-.486c.013-.036.048-.149.125-.161a1.48,1.48,0,0,1,.263-.021" transform="translate(1.691 1.427)" fill="#fff"/><path d="M72.4,60.738a.3.3,0,0,1,.105.113.525.525,0,0,1,.042.179c0,.08,0,.22,0,.361a3.129,3.129,0,0,1-.019.334,2.571,2.571,0,0,0,.01.33c0-.041-.005.352-.005.315s.009.213.009.213a.688.688,0,0,1,0,.173v.117c-.005.032,0,.3,0,.238s0,.138-.013.2a.274.274,0,0,1-.117.159.346.346,0,0,1-.167-.016.852.852,0,0,1-.2-.1.3.3,0,0,1-.041-.11c-.008-.037.005-.146,0-.169a.634.634,0,0,1-.014-.16c0-.081-.026-.5-.026-.54s.028-.132.024-.18.032-.377.024-.432,0-.235-.009-.357a2.664,2.664,0,0,1,.02-.486c.013-.036.048-.149.125-.161a1.48,1.48,0,0,1,.263-.021" transform="translate(1.691 1.427)" fill="none" stroke="#fff" stroke-miterlimit="10" stroke-width="0.05"/></svg>