<svg xmlns="http://www.w3.org/2000/svg" xmlns:xlink="http://www.w3.org/1999/xlink" width="160" height="52.212" viewBox="0 0 160 52.212">
  <defs>
    <clipPath id="clip-path">
      <rect id="Rectangle_10360" data-name="Rectangle 10360" width="160" height="52.212" fill="none"/>
    </clipPath>
  </defs>
  <g id="Groupe_39043" data-name="Groupe 39043" transform="translate(0 0)">
    <g id="Groupe_39042" data-name="Groupe 39042" transform="translate(0 0)" clip-path="url(#clip-path)">
      <path id="Tracé_27772" data-name="Tracé 27772" d="M23.694,71.383c1.317-.277,2.558-.545,3.8-.8a76.431,76.431,0,0,1,12.122-1.3,76.341,76.341,0,0,1,8.236.115c3.705.253,5.306.71,9,1.083.936.094.935.1.936.96,0,.38-.018.375,0,.754.023.412-.164.536-.6.478-2.145-.407-3.994-.532-5.456-.7a55.858,55.858,0,0,0-7.976-.784,79.394,79.394,0,0,0-15.754.919c-1.312.285-1.3.285-1.913.436-.444.109-1.662.209-1.826-.13-.149-.308-.378-.644-.582-1.032" transform="translate(-9.619 -28.103)" fill="#00b0c7"/>
      <path id="Tracé_27773" data-name="Tracé 27773" d="M26.9,78.576c1.406-.254,2.693-.5,3.989-.717a69.946,69.946,0,0,1,15.183-1c4.533.249,6.965.738,11.485,1.167,1.549.147,1.242.284,1.392.845,0,1.057.11,1.048-1.1.9-3.625-.434-5.163-.879-8.8-1.214a76.1,76.1,0,0,0-13.8-.191c-2.445.219-4.537.581-6.98.819a1.776,1.776,0,0,1-.885-.081,1.532,1.532,0,0,1-.482-.533" transform="translate(-10.918 -31.168)" fill="#00b0c7"/>
      <path id="Tracé_27774" data-name="Tracé 27774" d="M23.042,65.46c.632-.767,1.241-1.527,1.883-2.263a1.021,1.021,0,0,1,.548-.227,87.561,87.561,0,0,1,11.856-1.4,116.14,116.14,0,0,1,14.06.342c2.43.181,2.769.4,5.2.6.952.08.956.081.952.935-.006,1.561.13,1.2-1.344,1.071-3.824-.331-5.556-.73-9.387-.971-2.574-.162-5.166-.169-7.748-.125a63.778,63.778,0,0,0-15.478,2.019,3.552,3.552,0,0,1-.361.078c-.033.005-.071-.024-.178-.064" transform="translate(-9.354 -24.96)" fill="#259ca1"/>
      <path id="Tracé_27775" data-name="Tracé 27775" d="M29.67,57.966a3.615,3.615,0,0,1,2.687-1.956,93.444,93.444,0,0,1,19.6-1.4c3.074.1,4.567.331,7.637.556.491.036.68.229.648.689-.038.562-.009,1.128-.009,1.785-10.938-1.381-19.688-1.752-30.56.331" transform="translate(-12.045 -22.146)" fill="#259ca1"/>
      <path id="Tracé_27776" data-name="Tracé 27776" d="M35.408,50.377c.491-.593.87-1.088,1.3-1.546a1.283,1.283,0,0,1,.628-.318,88.425,88.425,0,0,1,14.735-2.108,58.339,58.339,0,0,1,9.917.343c.463.04.607.2.58.6a9.674,9.674,0,0,0,0,1.2c.024.4-.149.538-.585.5-1.931-.18-3.862-.363-5.8-.508a39.173,39.173,0,0,0-7.385.013A115.792,115.792,0,0,0,36,50.293c-.14.026-.282.04-.589.084" transform="translate(-14.374 -18.803)" fill="#259ca1"/>
      <path id="Tracé_27777" data-name="Tracé 27777" d="M60.358,86.257c-1.811-.167-3.105-.333-4.787-.473-2.262-.188-2.436-.4-4.7-.52q-3.648-.193-7.306-.23a62.182,62.182,0,0,0-10.6.728,2.075,2.075,0,0,1-1.991-.484c.94-.172,1.88-.371,2.829-.513a78.727,78.727,0,0,1,14.923-.819c4.884.276,5.99.635,11.08,1.031.374.024.579.141.561.515-.017.355,0,.326,0,.766" transform="translate(-12.572 -34.045)" fill="#00b0c7"/>
      <path id="Tracé_27778" data-name="Tracé 27778" d="M40.98,43.673c.634-.713.969-1.487,2.057-1.738,6.546-1.512,11.084-2.387,17.843-2.3,1.115.014,2.229.094,3.344.137.426.016.622.171.6.6-.076,1.757.4,1.606-1.761,1.462a48.48,48.48,0,0,0-8.44.014A110.372,110.372,0,0,0,41.464,43.67a3.207,3.207,0,0,1-.484,0" transform="translate(-16.636 -16.086)" fill="#259ca1"/>
      <path id="Tracé_27779" data-name="Tracé 27779" d="M45.976,37.623c.629-.868,1.013-1.817,2.305-2.133,4.793-1.171,7.55-1.993,12.509-2.2,1.8-.077,3.595-.119,5.391-.2.512-.023.691.138.677.614-.047,1.569.2,1.3-1.391,1.322A86.126,86.126,0,0,0,46.743,37.47c-.255.055-.511.1-.767.153" transform="translate(-18.664 -13.431)" fill="#259ca1"/>
      <path id="Tracé_27780" data-name="Tracé 27780" d="M23.85,14.147c.081.141.172.286.248.438,2.872,5.739,4.74,13.987,4.781,18.2.037.43-.227.819-.858,1.253-.252-1.166-1.04-4.951-1.3-6.1-1.127-4.9-2.31-7.456-4.73-12.277-.38-.729-.382-.729.436-1.05q.6-.234,1.2-.458a.943.943,0,0,1,.219-.015" transform="translate(-8.828 -5.743)" fill="#6b6c72"/>
      <path id="Tracé_27781" data-name="Tracé 27781" d="M51.906,30.319a4.265,4.265,0,0,1,2.822-2.181c5.163-1.1,8.279-1.894,13.576-2.144.952-.045.957-.048.951.833-.008,1.255.135,1.063-1.195,1.1-5.428.145-8.677.925-13.974,1.97-.681.134-1.363.264-2.18.422" transform="translate(-21.071 -10.546)" fill="#259ca1"/>
      <path id="Tracé_27782" data-name="Tracé 27782" d="M58.621,21.492c.893-1.013,1.482-2.063,2.993-2.47A62.606,62.606,0,0,1,71.7,16.982c.425-.026.614.078.589.492-.027.455-.018.912,0,1.367.012.322-.1.486-.48.513-5.017.346-7.874,1.133-12.78,2.136a2.639,2.639,0,0,1-.4,0" transform="translate(-23.797 -6.892)" fill="#e96424"/>
      <path id="Tracé_27783" data-name="Tracé 27783" d="M29.813,11.728l1.941-.763c.094.2.179.344.238.5a70.268,70.268,0,0,1,3.723,15.319c.11.8-.283,1.28-.912,1.859a79.991,79.991,0,0,0-4.989-16.915" transform="translate(-12.103 -4.451)" fill="#6b6c72"/>
      <path id="Tracé_27784" data-name="Tracé 27784" d="M41.876,23.031c-.217-1.107-.41-2.112-.611-3.115A75.556,75.556,0,0,0,38.379,9.132c-.186-.518-.086-.768.475-.917.369-.1.717-.261,1.17-.43.337,1.259.74,2.44.961,3.649.617,3.37,1.155,6.752,1.735,10.128.112.654-.372.982-.844,1.468" transform="translate(-15.545 -3.16)" fill="#6b6c72"/>
      <path id="Tracé_27785" data-name="Tracé 27785" d="M75.307,10c0,.623.039.836.027,1.314-.013.13-.3.215-.484.238-1.965.241-3.574.462-5.725.892-1.365.182-.984.246-2.208.44.741-.76,1.028-1.906,2.393-2.124,2.481-.4,2.241-.408,4.719-.824.2-.033,1.3-.3,1.278.065" transform="translate(-27.165 -3.98)" fill="#e96424"/>
      <path id="Tracé_27786" data-name="Tracé 27786" d="M47.689,18.226c-.2-1.139-.359-2.285-.6-3.417-.568-2.722-1.337-5.378-1.945-8.093-.217-.969-.292-.792.672-1.177.187-.074.378-.138.617-.225a3.24,3.24,0,0,1,.144.579,73.378,73.378,0,0,1,1.732,11.137,4.123,4.123,0,0,1-.334,1.235l-.291-.038" transform="translate(-18.273 -2.157)" fill="#6b6c72"/>
      <path id="Tracé_27787" data-name="Tracé 27787" d="M53.625,13.379c-.3-1.814-.591-3.63-.91-5.442-.23-1.307-.5-2.608-.753-3.911-.162-.826-.168-.826.678-1.161.186-.074.376-.139.659-.244.074.417.159.777.2,1.142.3,2.828.623,5.654.867,8.486.033.383-.328.794-.507,1.192l-.233-.062" transform="translate(-21.06 -1.064)" fill="#259ca1"/>
      <path id="Tracé_27788" data-name="Tracé 27788" d="M59.92,8.131c-.206-1.182-.384-2.246-.577-3.308-.217-1.2-.409-2.4-.692-3.585-.131-.548.012-.824.574-.969.233-.059.454-.155.782-.27.135,1,.289,1.931.38,2.865.125,1.284.185,2.574.308,3.859a1.558,1.558,0,0,1-.775,1.407" transform="translate(-23.791 0)" fill="#259ca1"/>
      <path id="Tracé_27789" data-name="Tracé 27789" d="M15.016,44.413A73.059,73.059,0,0,0,5.7,21.123c.78-.308,1.448-.6,2.142-.822.109-.035.4.193.49.354a59.932,59.932,0,0,1,4.618,9.763,73.34,73.34,0,0,1,3.194,11.94,1.088,1.088,0,0,1-.3,1.091c-.263.258-.481.554-.831.964" transform="translate(-2.314 -8.24)" fill="#e96424"/>
      <path id="Tracé_27790" data-name="Tracé 27790" d="M14.454,17.765c.359-.21.889-.342,1.506-.6.418-.176.5.107.615.348.928,1.968,1.654,4.023,2.528,6.011a55.284,55.284,0,0,1,4.091,13.46c.143.887-.646,1.189-1.046,1.786-1.2-6.812-5.074-15.682-7.694-21" transform="translate(-5.868 -6.946)" fill="#e96424"/>
      <path id="Tracé_27791" data-name="Tracé 27791" d="M7.575,38.568C5.221,33.539,2.378,28.662,0,23.581l1.112-.464c2.614,5.026,5.373,9.963,6.608,15.4l-.146.054" transform="translate(0 -9.384)" fill="#e96424"/>
      <path id="Tracé_27792" data-name="Tracé 27792" d="M100.421,18.929l-2.038-5.892-2.038,5.892Zm.767,2.26H95.579l-.928,2.683H91.685l5.064-14.1h3.289l5.064,14.1h-2.986Z" transform="translate(-37.22 -3.966)" fill="#6b6c72"/>
      <path id="Tracé_27793" data-name="Tracé 27793" d="M120.288,12.069V15.6h4.742v2.24h-4.742v3.732h5.347v2.3h-8.172V9.769h8.172v2.3Z" transform="translate(-47.685 -3.966)" fill="#6b6c72"/>
      <path id="Tracé_27794" data-name="Tracé 27794" d="M138.357,16.279h2.361a2.357,2.357,0,0,0,1.716-.555A2.065,2.065,0,0,0,143,14.181a1.973,1.973,0,0,0-.564-1.5,2.421,2.421,0,0,0-1.716-.535h-2.361Zm4.439,7.607L139.689,18.4h-1.332v5.488h-2.824V9.8h5.286a6.169,6.169,0,0,1,2.785.575,4.021,4.021,0,0,1,1.725,1.553,4.241,4.241,0,0,1,.575,2.189,4.2,4.2,0,0,1-.807,2.512,4.149,4.149,0,0,1-2.4,1.543l3.369,5.71Z" transform="translate(-55.02 -3.98)" fill="#6b6c72"/>
      <path id="Tracé_27795" data-name="Tracé 27795" d="M165.612,20.793a3.938,3.938,0,0,0,1.513-1.644,5.392,5.392,0,0,0,.545-2.482,5.33,5.33,0,0,0-.545-2.472,3.892,3.892,0,0,0-1.513-1.624,4.369,4.369,0,0,0-2.24-.565,4.423,4.423,0,0,0-2.25.565,3.875,3.875,0,0,0-1.524,1.624,5.338,5.338,0,0,0-.545,2.472,5.4,5.4,0,0,0,.545,2.482,3.92,3.92,0,0,0,1.524,1.644,4.358,4.358,0,0,0,2.25.575,4.306,4.306,0,0,0,2.24-.575m-5.872,2.169a6.922,6.922,0,0,1-2.623-2.572,7.2,7.2,0,0,1-.968-3.723,7.155,7.155,0,0,1,.968-3.7,6.932,6.932,0,0,1,2.623-2.573,7.592,7.592,0,0,1,7.274,0,6.883,6.883,0,0,1,2.6,2.573,7.216,7.216,0,0,1,.958,3.7,7.26,7.26,0,0,1-.958,3.723A6.851,6.851,0,0,1,167,22.962a7.571,7.571,0,0,1-7.263,0" transform="translate(-63.389 -3.842)" fill="#6b6c72"/>
      <path id="Tracé_27796" data-name="Tracé 27796" d="M190.765,15.664a1.969,1.969,0,0,0,.565-1.5q0-2.058-2.3-2.058h-2.24v4.1h2.24a2.448,2.448,0,0,0,1.735-.535m2.936.615a3.928,3.928,0,0,1-1.675,1.594,6.1,6.1,0,0,1-2.875.605h-2.361v5.408h-2.825V9.8h5.185a6.267,6.267,0,0,1,2.784.565,3.935,3.935,0,0,1,1.725,1.553,4.558,4.558,0,0,1,.04,4.359" transform="translate(-74.682 -3.98)" fill="#6b6c72"/>
      <path id="Tracé_27797" data-name="Tracé 27797" d="M212.925,20.793a3.938,3.938,0,0,0,1.513-1.644,5.392,5.392,0,0,0,.545-2.482,5.33,5.33,0,0,0-.545-2.472,3.892,3.892,0,0,0-1.513-1.624,4.37,4.37,0,0,0-2.24-.565,4.423,4.423,0,0,0-2.25.565,3.875,3.875,0,0,0-1.524,1.624,5.337,5.337,0,0,0-.545,2.472,5.4,5.4,0,0,0,.545,2.482,3.921,3.921,0,0,0,1.524,1.644,4.358,4.358,0,0,0,2.25.575,4.306,4.306,0,0,0,2.24-.575m-5.872,2.169a6.922,6.922,0,0,1-2.623-2.572,7.2,7.2,0,0,1-.968-3.723,7.155,7.155,0,0,1,.968-3.7,6.932,6.932,0,0,1,2.623-2.573,7.592,7.592,0,0,1,7.274,0,6.883,6.883,0,0,1,2.6,2.573,7.217,7.217,0,0,1,.959,3.7,7.261,7.261,0,0,1-.959,3.723,6.854,6.854,0,0,1-2.613,2.572,7.572,7.572,0,0,1-7.264,0" transform="translate(-82.596 -3.842)" fill="#6b6c72"/>
      <path id="Tracé_27798" data-name="Tracé 27798" d="M234.1,16.279h2.361a2.357,2.357,0,0,0,1.716-.555,2.065,2.065,0,0,0,.564-1.543,1.973,1.973,0,0,0-.564-1.5,2.421,2.421,0,0,0-1.716-.535H234.1Zm4.439,7.607L235.434,18.4H234.1v5.488h-2.825V9.8h5.286a6.171,6.171,0,0,1,2.785.575,4.021,4.021,0,0,1,1.725,1.553,4.24,4.24,0,0,1,.574,2.189,4.2,4.2,0,0,1-.807,2.512,4.147,4.147,0,0,1-2.4,1.543l3.369,5.71Z" transform="translate(-93.888 -3.98)" fill="#6b6c72"/>
      <path id="Tracé_27799" data-name="Tracé 27799" d="M262.123,9.8v2.28H258.37v11.8h-2.825v-11.8h-3.753V9.8Z" transform="translate(-102.216 -3.98)" fill="#6b6c72"/>
      <path id="Tracé_27800" data-name="Tracé 27800" d="M94.17,54.625h4.265v2.058H91.313V43.739H94.17Z" transform="translate(-37.069 -17.756)" fill="#6b6c72"/>
      <path id="Tracé_27801" data-name="Tracé 27801" d="M112.768,52.127,110.9,46.712l-1.873,5.415Zm.7,2.077h-5.156l-.853,2.466h-2.726l4.655-12.963h3.023l4.655,12.963h-2.745Z" transform="translate(-42.519 -17.743)" fill="#6b6c72"/>
      <path id="Tracé_27802" data-name="Tracé 27802" d="M138.459,49.692h2.17a2.166,2.166,0,0,0,1.576-.51,1.9,1.9,0,0,0,.519-1.419,1.811,1.811,0,0,0-.519-1.382,2.221,2.221,0,0,0-1.576-.491h-2.17Zm4.08,6.991-2.856-5.044h-1.224v5.044h-2.6V43.738h4.859a5.673,5.673,0,0,1,2.559.529,3.694,3.694,0,0,1,1.586,1.428,3.9,3.9,0,0,1,.529,2.012,3.857,3.857,0,0,1-.742,2.309,3.81,3.81,0,0,1-2.207,1.419l3.1,5.248Z" transform="translate(-55.154 -17.756)" fill="#6b6c72"/>
      <path id="Tracé_27803" data-name="Tracé 27803" d="M158.47,45.822v3.245h4.358v2.059H158.47v3.431h4.915v2.114h-7.511V43.707h7.511v2.114Z" transform="translate(-63.277 -17.743)" fill="#6b6c72"/>
      <path id="Tracé_27804" data-name="Tracé 27804" d="M175.016,43.739V51.75a2.748,2.748,0,0,0,.686,2.013,2.588,2.588,0,0,0,1.929.7,2.614,2.614,0,0,0,1.947-.7,2.748,2.748,0,0,0,.686-2.013V43.739h2.615v7.993a5.162,5.162,0,0,1-.714,2.791,4.521,4.521,0,0,1-1.91,1.715,6.057,6.057,0,0,1-2.661.575,5.894,5.894,0,0,1-2.624-.575,4.366,4.366,0,0,1-1.864-1.715,5.318,5.318,0,0,1-.686-2.791V43.739Z" transform="translate(-69.994 -17.756)" fill="#6b6c72"/>
      <path id="Tracé_27805" data-name="Tracé 27805" d="M205.312,56.671h-2.6l-5.879-8.883v8.883h-2.6V43.707h2.6l5.879,8.9v-8.9h2.6Z" transform="translate(-78.853 -17.743)" fill="#6b6c72"/>
      <rect id="Rectangle_10359" data-name="Rectangle 10359" width="2.597" height="12.945" transform="translate(129.019 25.983)" fill="#6b6c72"/>
      <path id="Tracé_27806" data-name="Tracé 27806" d="M233.5,53.84a3.612,3.612,0,0,0,1.391-1.512,4.958,4.958,0,0,0,.5-2.281,4.9,4.9,0,0,0-.5-2.272,3.569,3.569,0,0,0-1.391-1.493,4.011,4.011,0,0,0-2.058-.519,4.065,4.065,0,0,0-2.068.519,3.556,3.556,0,0,0-1.4,1.493,4.9,4.9,0,0,0-.5,2.272,4.951,4.951,0,0,0,.5,2.281,3.6,3.6,0,0,0,1.4,1.512,4.005,4.005,0,0,0,2.068.528,3.952,3.952,0,0,0,2.058-.528m-5.4,1.994a6.365,6.365,0,0,1-2.411-2.365,6.983,6.983,0,0,1,0-6.824A6.368,6.368,0,0,1,228.1,44.28a6.976,6.976,0,0,1,6.685,0,6.324,6.324,0,0,1,2.393,2.364,7.057,7.057,0,0,1,0,6.824,6.307,6.307,0,0,1-2.4,2.365,6.958,6.958,0,0,1-6.677,0" transform="translate(-91.259 -17.629)" fill="#6b6c72"/>
      <path id="Tracé_27807" data-name="Tracé 27807" d="M261.443,56.671h-2.6l-5.879-8.883v8.883h-2.6V43.707h2.6l5.879,8.9v-8.9h2.6Z" transform="translate(-101.639 -17.743)" fill="#6b6c72"/>
      <path id="Tracé_27808" data-name="Tracé 27808" d="M92.69,80.244h1.286A1.565,1.565,0,0,0,95.1,79.88a1.294,1.294,0,0,0,.378-.976,1.266,1.266,0,0,0-.365-.972,1.64,1.64,0,0,0-1.149-.342H92.69Zm2.755,3.183-1.578-2.664H92.69v2.664h-.639V77.052h1.916a2.3,2.3,0,0,1,1.619.511,1.741,1.741,0,0,1,.552,1.341,1.813,1.813,0,0,1-.4,1.181,1.9,1.9,0,0,1-1.172.634l1.642,2.709Z" transform="translate(-37.368 -31.279)" fill="#6b6c72"/>
      <path id="Tracé_27809" data-name="Tracé 27809" d="M109.612,82.556a2.325,2.325,0,0,0,.893-.944,3.256,3.256,0,0,0,0-2.85,2.331,2.331,0,0,0-.893-.939,2.646,2.646,0,0,0-2.554,0,2.332,2.332,0,0,0-.894.939,3.261,3.261,0,0,0,0,2.85,2.326,2.326,0,0,0,.894.944,2.646,2.646,0,0,0,2.554,0m-2.882.47a2.981,2.981,0,0,1-1.135-1.158,3.617,3.617,0,0,1,0-3.365,3,3,0,0,1,1.135-1.159,3.332,3.332,0,0,1,3.22,0A2.972,2.972,0,0,1,111.08,78.5a3.654,3.654,0,0,1,0,3.365,2.958,2.958,0,0,1-1.131,1.158,3.328,3.328,0,0,1-3.22,0" transform="translate(-42.698 -31.23)" fill="#6b6c72"/>
      <path id="Tracé_27810" data-name="Tracé 27810" d="M123.013,82.907H125.3v.52h-2.928V77.051h.639Z" transform="translate(-49.678 -31.279)" fill="#6b6c72"/>
      <path id="Tracé_27811" data-name="Tracé 27811" d="M136.648,81.44l-1.259-3.448-1.259,3.448Zm.191.529h-2.9l-.557,1.514h-.675l2.326-6.293h.721l2.317,6.293H137.4Z" transform="translate(-53.873 -31.335)" fill="#6b6c72"/>
      <path id="Tracé_27812" data-name="Tracé 27812" d="M152.868,83.427h-.639l-3.53-5.363v5.363h-.638V77.052h.638l3.53,5.354V77.052h.639Z" transform="translate(-60.106 -31.279)" fill="#6b6c72"/>
      <path id="Tracé_27813" data-name="Tracé 27813" d="M167.117,82.2a2.629,2.629,0,0,0,.7-1.947,2.675,2.675,0,0,0-.7-1.966,2.727,2.727,0,0,0-2.029-.706h-1.249V82.9h1.249a2.748,2.748,0,0,0,2.029-.7m-.214-4.765a2.676,2.676,0,0,1,1.158,1.1,3.471,3.471,0,0,1,.4,1.715,3.424,3.424,0,0,1-.4,1.7,2.656,2.656,0,0,1-1.158,1.094,4.019,4.019,0,0,1-1.815.378H163.2V77.052h1.888a3.98,3.98,0,0,1,1.815.383" transform="translate(-66.252 -31.279)" fill="#6b6c72"/>
      <path id="Tracé_27814" data-name="Tracé 27814" d="M192.275,78.862a2.189,2.189,0,0,0-.835-.99,2.385,2.385,0,0,0-1.318-.36,2.5,2.5,0,0,0-1.278.328,2.349,2.349,0,0,0-.893.935,3.2,3.2,0,0,0,0,2.823,2.334,2.334,0,0,0,.893.939,2.649,2.649,0,0,0,2.477.042,2.227,2.227,0,0,0,.858-.821,2.7,2.7,0,0,0,.369-1.245h-2.682v-.52h3.357v.465a3.238,3.238,0,0,1-.456,1.518,3,3,0,0,1-1.1,1.072,3.07,3.07,0,0,1-1.546.392,3.155,3.155,0,0,1-1.606-.415,3,3,0,0,1-1.136-1.158,3.623,3.623,0,0,1,0-3.366,2.994,2.994,0,0,1,1.136-1.158,3.346,3.346,0,0,1,3.393.1,2.9,2.9,0,0,1,1.113,1.423Z" transform="translate(-75.9 -31.229)" fill="#6b6c72"/>
      <path id="Tracé_27815" data-name="Tracé 27815" d="M207.274,81.44l-1.259-3.448-1.258,3.448Zm.191.529h-2.9l-.556,1.514h-.675l2.325-6.293h.721l2.317,6.293h-.675Z" transform="translate(-82.544 -31.335)" fill="#6b6c72"/>
      <path id="Tracé_27816" data-name="Tracé 27816" d="M219.326,80.244h1.286a1.569,1.569,0,0,0,1.127-.365,1.293,1.293,0,0,0,.378-.976,1.268,1.268,0,0,0-.365-.972,1.639,1.639,0,0,0-1.149-.342h-1.277Zm2.755,3.183L220.5,80.764h-1.177v2.664h-.638V77.052H220.6a2.3,2.3,0,0,1,1.619.511,1.739,1.739,0,0,1,.551,1.341,1.813,1.813,0,0,1-.4,1.181,1.9,1.9,0,0,1-1.172.634l1.641,2.709Z" transform="translate(-88.777 -31.279)" fill="#6b6c72"/>
      <path id="Tracé_27817" data-name="Tracé 27817" d="M232.944,80.244h1.286a1.566,1.566,0,0,0,1.127-.365,1.3,1.3,0,0,0,.378-.976,1.268,1.268,0,0,0-.365-.972,1.641,1.641,0,0,0-1.149-.342h-1.278Zm2.755,3.183-1.578-2.664h-1.177v2.664h-.638V77.052h1.916a2.3,2.3,0,0,1,1.619.511,1.741,1.741,0,0,1,.551,1.341,1.81,1.81,0,0,1-.4,1.181,1.9,1.9,0,0,1-1.171.634l1.641,2.709Z" transform="translate(-94.305 -31.279)" fill="#6b6c72"/>
      <path id="Tracé_27818" data-name="Tracé 27818" d="M249.866,82.556a2.321,2.321,0,0,0,.893-.944,3.25,3.25,0,0,0,0-2.85,2.327,2.327,0,0,0-.893-.939,2.646,2.646,0,0,0-2.554,0,2.33,2.33,0,0,0-.893.939,3.255,3.255,0,0,0,0,2.85,2.324,2.324,0,0,0,.893.944,2.646,2.646,0,0,0,2.554,0m-2.882.47a2.989,2.989,0,0,1-1.135-1.158,3.617,3.617,0,0,1,0-3.365,3,3,0,0,1,1.135-1.159,3.332,3.332,0,0,1,3.22,0,2.968,2.968,0,0,1,1.131,1.159,3.654,3.654,0,0,1,0,3.365,2.955,2.955,0,0,1-1.131,1.158,3.328,3.328,0,0,1-3.22,0" transform="translate(-99.634 -31.23)" fill="#6b6c72"/>
      <path id="Tracé_27819" data-name="Tracé 27819" d="M263.305,83.222a1.808,1.808,0,0,1-.753-.611,1.607,1.607,0,0,1-.292-.876h.675a1.28,1.28,0,0,0,.41.817,1.48,1.48,0,0,0,1.067.351,1.5,1.5,0,0,0,1.027-.333,1.078,1.078,0,0,0,.378-.844,1,1,0,0,0-.21-.661,1.29,1.29,0,0,0-.52-.374,7.948,7.948,0,0,0-.857-.269,7.586,7.586,0,0,1-1.012-.337,1.616,1.616,0,0,1-.639-.511,1.512,1.512,0,0,1-.264-.94,1.565,1.565,0,0,1,.255-.88,1.715,1.715,0,0,1,.721-.607,2.485,2.485,0,0,1,1.067-.219,2.221,2.221,0,0,1,1.427.433,1.629,1.629,0,0,1,.625,1.118h-.693a1.145,1.145,0,0,0-.429-.7,1.695,1.695,0,0,0-1.943,0,1.01,1.01,0,0,0-.383.835.966.966,0,0,0,.21.648,1.335,1.335,0,0,0,.524.374,7.73,7.73,0,0,0,.852.274,7.669,7.669,0,0,1,1,.342,1.636,1.636,0,0,1,.648.516,1.5,1.5,0,0,1,.264.93,1.636,1.636,0,0,1-.238.848,1.732,1.732,0,0,1-.7.648,2.354,2.354,0,0,1-1.113.247,2.636,2.636,0,0,1-1.108-.219" transform="translate(-106.466 -31.23)" fill="#6b6c72"/>
      <path id="Tracé_27820" data-name="Tracé 27820" d="M125.464,3.53c0,.51.021.959-.015,1.4-.009.106-.206.257-.33.276-1.329.2-2.664.349-3.99.563-.923.149-1.837.376-2.788.528.5-.623.7-1.56,1.619-1.739,1.678-.324,3.35-.687,5.026-1.028.132-.027.472-.128.479,0" transform="translate(-48.04 -1.408)" fill="#6b6c72"/>
      <path id="Tracé_27821" data-name="Tracé 27821" d="M162.972,39.27c-1.329.2-2.664.352-3.99.569-.923.15-1.837.38-2.788.533.5-.629.7-1.576,1.619-1.757,1.678-.327,3.35-.694,5.026-1.038.132-.027.472-.128.479,0" transform="translate(-63.407 -15.228)" fill="#6b6c72"/>
    </g>
  </g>
</svg>
