<?xml version="1.0" encoding="UTF-8" standalone="no"?>
<svg id="svg4588" xmlns:rdf="http://www.w3.org/1999/02/22-rdf-syntax-ns#" xmlns="http://www.w3.org/2000/svg" height="70" width="400" version="1.1" xmlns:cc="http://creativecommons.org/ns#" xmlns:dc="http://purl.org/dc/elements/1.1/" viewBox="0 0 399.99999 70.000001">
 <metadata id="metadata4608">
  <rdf:RDF>
   <cc:Work rdf:about="">
    <dc:format>image/svg+xml</dc:format>
    <dc:type rdf:resource="http://purl.org/dc/dcmitype/StillImage"/>
    <dc:title>logo</dc:title>
   </cc:Work>
  </rdf:RDF>
 </metadata>
 <title id="title4590">logo</title>
 <g id="g12" transform="matrix(.027131 0 0 -.027131 2.2803 70.188)">
  <g fill="#1b458f">
   <path id="path14" d="m391.98 238.14-69.528 165.99-70.398-165.99h139.93zm-117.33 383.28h99.949l271.17-611h-172.09l-41.719 102.56h-219.89l-41.72-102.55h-170.35l274.64 611"/>
   <path id="path16" d="m700.47 621.43h440.65v-144.28h-276.38v-86.906h242.49v-140.8h-242.49v-94.738h278.12v-144.27h-442.39v611"/>
   <path id="path18" d="m1495.7 305.06c59.97 0 97.33 38.238 97.33 86.917 0 51.274-35.63 91.25-99.95 91.25h-78.21v-178.17h80.83zm-45.2-138.19h-35.63v-156.44h-162.53v611h256.39c157.32 0 250.31-99.078 250.31-231.18 0-85.179-43.46-152.1-115.59-190.35l-14.78-6.942c29.55-22.605 69.53-31.297 102.55-31.297v-160.78c-127.76 0-235.52 65.18-280.72 166"/>
   <path id="path20" d="m2313.5 318.1c0 98.215-66.05 166.87-156.45 166.87-92.12 0-159.91-69.524-159.91-166.87 0-95.606 67.79-167.74 159.91-167.74 90.4 0 156.45 71.266 156.45 167.74zm-485.85 0c0 179.91 139.93 317.23 329.4 317.23 187.74 0 325.93-132.98 325.93-317.23 0.1-182.51-138.1-318.1-325.9-318.1-189.47 0-329.4 139.06-329.4 318.1"/>
   <path id="path22" d="m2806.2 309.41c73.87 0 102.56 40.844 102.56 82.57 0 45.192-30.42 88.645-102.56 88.645h-65.19v-171.22h65.19zm-227.72 312.02h239.02c159.91 0 257.26-96.469 257.26-232.92 0-128.63-99.95-220.76-265.09-220.76h-68.66v-157.31h-162.53v611"/>
   <path id="path24" d="m3610.1 318.1c0 98.215-66.05 166.87-156.44 166.87-92.13 0-159.92-69.524-159.92-166.87 0-95.606 67.79-167.74 159.92-167.74 90.39 0 156.44 71.266 156.44 167.74zm-485.84 0c0 179.91 139.93 317.23 329.4 317.23 187.73 0 325.92-132.98 325.92-317.23 0-182.51-138.2-318.1-325.9-318.1-189.47 0-329.4 139.06-329.4 318.1"/>
   <path id="path26" d="m4118.5 305.06c59.97 0 97.34 38.238 97.34 86.917 0 51.274-35.63 91.25-99.95 91.25h-78.22v-178.17h80.83zm-45.2-138.19h-35.63v-156.44h-162.53v611h256.39c157.32 0 250.31-99.078 250.31-231.18 0-85.179-43.45-152.1-115.59-190.35l-14.78-6.942c29.56-22.605 69.54-31.297 102.56-31.297v-160.78c-127.76 0-235.53 65.18-280.73 166"/>
   <path id="path28" d="m4615.6 475.42h-195.55v146.01h559.71v-146.01h-198.16v-464.99h-166v464.99"/>
  </g>
  <path id="path30" d="m1020.3 765.7v-119.06h-204.24l204.24 119.06" fill="#9edcb3"/>
  <g fill="#1b458f">
   <path id="path32" d="m26.066 1111.9c0 172.96 127.77 313.75 319.84 313.75 121.68 0 189.47-46.05 212.07-60.84l-71.27-130.37c-10.43 8.69-54.754 39.11-119.94 39.11-104.3 0-171.22-61.7-171.22-160.79 0-102.55 67.789-163.38 172.09-163.38 65.183 0 109.51 33.024 119.07 41.715l71.27-130.37c-22.602-14.773-86.914-61.703-212.07-61.703-191.21 0-319.84 139.06-319.84 312.88"/>
   <path id="path34" d="m636.16 1417.9h166v-234.66h248.57v234.66h166v-611h-166v229.45h-248.57v-229.45h-166v611"/>
   <path id="path36" d="m1662.6 1034.6-69.53 166-70.4-166h139.93zm-117.33 383.29h99.95l271.17-611h-172.09l-41.72 102.56h-219.89l-41.72-102.56h-170.35l274.65 611"/>
   <path id="path38" d="m1979.7 1417.9h108.64l222.49-374.59 222.51 374.59h103.42l15.65-611h-162.53l-1.74 285.07-130.37-236.4h-100.82l-128.63 232.06-0.87-280.73h-162.53l14.78 611"/>
   <path id="path40" d="m3034.8 932.02c57.36 0 85.18 24.332 85.18 62.575 0 40.842-26.07 60.832-85.18 60.832h-102.55v-123.41h102.55zm-13.03 241.62c51.27 0 77.36 21.72 77.36 59.97 0 35.62-26.95 59.1-78.23 59.1h-88.65v-119.07h89.52zm-248.57 244.22h251.18c164.26 0 231.19-68.65 231.19-165.13 0-59.1-37.38-105.18-96.48-124.29 87.79-19.12 119.94-79.96 119.94-146.01 0-108.63-69.53-175.57-245.1-175.57h-260.73v611"/>
   <path id="path42" d="m3693.6 1562.1v-119.07h-204.24l204.24 119.07zm-319.83-144.28h440.64v-144.28h-276.38v-86.91h242.49v-140.8h-242.49v-94.725h278.12v-144.29h-442.38v611"/>
   <path id="path44" d="m4168.9 1101.5c59.98 0 97.35 38.24 97.35 86.92 0 51.27-35.64 91.25-99.96 91.25h-78.22v-178.17h80.83zm-45.19-138.2h-35.64v-156.44h-162.53v611h256.4c157.31 0 250.31-99.07 250.31-231.19 0-85.17-43.46-152.1-115.6-190.33l-14.77-6.953c29.55-22.598 69.53-31.289 102.56-31.289v-160.78c-127.76 0-235.54 65.179-280.73 165.99"/>
   <path id="path46" d="m4661.7 1044.1-219.88 373.73h200.77l108.63-212.06 110.38 212.06h190.35l-222.5-372.85v-238.15h-167.75v237.27"/>
   <path id="path48" d="m5227.4 874.66 77.36 130.37c57.36-44.327 105.16-64.315 179.91-64.315 39.97 0 61.7 15.64 61.7 42.582 0 31.293-22.59 43.453-108.64 68.663-132.11 39.1-183.38 89.52-183.38 181.65 0 116.46 94.73 192.07 239.87 192.07 89.53 0 159.93-24.33 221.63-66.92l-69.53-124.29c-46.93 31.3-103.42 49.55-155.57 49.55-45.2 0-68.66-12.17-68.66-37.38 0-23.46 16.51-33.9 106.03-60.84 128.63-38.25 183.39-94.74 183.39-187.73 0-126.03-86.92-199.03-238.14-199.03-98.22 0-179.91 27.808-245.97 75.609"/>
   <path id="path50" d="m6118.3 1034.6-69.54 166-70.39-166h139.93zm-117.34 383.29h99.96l271.16-611h-172.09l-41.71 102.56h-219.89l-41.72-102.56h-170.34l274.63 611"/>
   <path id="path52" d="m6299 1417.9h184.25l86.05-225.1 42.58-132.12 40.85 132.12 80.83 225.1h175.57l-254.66-611h-99.95l-255.52 611"/>
   <path id="path54" d="m7401.9 1114.5c0 98.2-66.05 166.87-156.44 166.87-92.12 0-159.92-69.53-159.92-166.87 0-95.61 67.8-167.74 159.92-167.74 90.39 0 156.44 71.263 156.44 167.74zm-485.84 0c0 179.91 139.93 317.23 329.4 317.23 187.74 0 325.92-132.98 325.92-317.23 0-182.52-138.18-318.11-325.92-318.11-189.47 0-329.4 139.06-329.4 318.11"/>
   <path id="path56" d="m7666.1 1191.9h166.87v-385.03h-166.87v385.03zm-12.17 138.19c0 51.28 39.11 93 95.6 93 55.63 0 94.75-41.72 94.75-93 0-52.15-39.12-93.86-94.75-93.86-56.49 0-95.6 41.71-95.6 93.86"/>
   <path id="path58" d="m7958.1 1417.9h440.64v-144.28h-276.37v-86.91h242.48v-140.8h-242.48v-94.725h278.12v-144.29h-442.39v611"/>
   <path id="path60" d="m8749.8 1417.9h108.63l222.49-374.59 222.57 374.59h103.42l15.64-611h-162.52l-1.82 285.07-130.36-236.4h-100.82l-128.62 232.06-0.87-280.73h-162.51l14.77 611"/>
   <path id="path62" d="m9996.9 1114.5c0 98.2-66.05 166.87-156.43 166.87-92.12 0-159.91-69.53-159.91-166.87 0-95.61 67.79-167.74 159.91-167.74 90.38 0 156.43 71.263 156.43 167.74zm-485.81 0c0 179.91 139.92 317.23 329.38 317.23 187.74 0 325.94-132.98 325.94-317.23 0-182.52-138.2-318.11-325.94-318.11-189.46 0-329.38 139.06-329.38 318.11"/>
   <path id="path64" d="m10424 1140.6v-333.75h-162.5v617.96h92.1l309.4-332.01v325.05h162.5v-617.09h-91.3l-310.2 339.84"/>
   <path id="path66" d="m11094 1271.8h-195.6v146.01h559.7v-146.01h-198.1v-464.99h-166v464.99"/>
   <path id="path68" d="m11997 932.02c57.4 0 85.2 24.332 85.2 62.575 0 40.842-26.1 60.832-85.2 60.832h-102.5v-123.41h102.5zm-13 241.62c51.3 0 77.3 21.72 77.3 59.97 0 35.62-26.9 59.1-78.2 59.1h-88.6v-119.07h89.5zm-248.6 244.22h251.2c164.3 0 231.2-68.65 231.2-165.13 0-59.1-37.4-105.18-96.5-124.29 87.8-19.12 119.9-79.96 119.9-146.01 0-108.63-69.5-175.57-245-175.57h-260.8v611"/>
   <path id="path70" d="m12336 1417.9h166.8v-465.85h271.2v-145.15h-438v611"/>
   <path id="path72" d="m13163 1034.6-69.5 166-70.4-166h139.9zm-117.3 383.29h100l271.1-611h-172.1l-41.7 102.56h-219.9l-41.7-102.56h-170.3l274.6 611"/>
   <path id="path74" d="m13635 1140.6v-333.75h-162.5v617.96h92.1l309.4-332.01v325.05h162.6v-617.09h-91.3l-310.3 339.84"/>
   <path id="path76" d="m14131 1111.9c0 172.96 127.7 313.75 319.8 313.75 121.7 0 189.5-46.05 212.1-60.84l-71.3-130.37c-10.4 8.69-54.8 39.11-119.9 39.11-104.3 0-171.2-61.7-171.2-160.79 0-102.55 67.7-163.38 172-163.38 65.2 0 109.5 33.024 119.1 41.715l71-130.31c-22.6-14.773-86.9-61.703-212.1-61.703-191.2 0-319.8 139.06-319.8 312.88"/>
  </g>
  <path id="path78" d="m911.44 1932.5 213.78 265.76-339.32 365.16c-3.516 3.78-9.547 3.62-12.856-0.34l-187.21-224.59-70.18 30.88c-3.98 1.76-8.664 0.36-10.992-3.27l-80.785-134.68 195.25-299.02 292.31 0.1" fill="#3b5b95"/>
  <path id="path80" d="m516.2 2282.1-47.351-24.36 48.734 86.29 84.25-34.99-51.535-19.39-2.621-43.76-31.477 36.21" fill="#fff"/>
  <path id="path82" d="m834.5 2195.3-18.926 98.53-102.41-63.07 47.566 132.99 20.461 143.03 289.38-311.33-157.34 88.38-78.73-88.53" fill="#fff"/>
  <path id="path84" d="m1221.1 2301c-3.79 4.01-10.23 3.74-13.68-0.55l-295.99-367.96 658.45 0.42-348.78 368.09" fill="#2c73c3"/>
  <path id="path86" d="m348.4 2331c-44.62-52.3-327.46-383.9-339.8-399.1l610.53 0.47-259.72 397.76c-2.664 4.07-7.894 4.55-11.008 0.9" fill="#2c73c3"/>
  <path id="path88" d="m1221.6 2135.8c-8.52 27.62-14.49 62.14-14.49 62.14l-51.89-8.81 60.94 76.18c19.65-18.43 154.54-160.63 154.54-160.63l-119.43 53.73-29.67-22.61" fill="#fff"/>
  <path id="path90" d="m407.83 2137.2-65.914-50.48-24.027 71.71 36.472 130.71 114.59-188.21-61.117 36.27" fill="#fff"/>
  <path id="path92" d="m8.6289 1886 1561.3 0.98s-173.43-219.97-780.51-225.08-780.78 224.1-780.78 224.1" fill="#9edcb3"/>
 </g>
</svg>
