<svg xmlns="http://www.w3.org/2000/svg" xmlns:xlink="http://www.w3.org/1999/xlink" width="165px" height="48px" viewBox="0 0 165 48"><title>Group</title><g id="Page-1" stroke="none" stroke-width="1" fill="none" fill-rule="evenodd"><g id="Group" transform="translate(-2, -1)" fill="#000000"><path d="M12.9716,21.8974 C15.2006,21.8974 16.9826,21.5417 18.9146,20.9264 L19.538,16.8297 L16.2092,18.655 C15.1388,18.9203 14.1302,19.0078 13.2657,19.0078 C9.52228,19.0078 6.93749,16.5031 6.93749,11.4353 C6.93749,6.36755 9.55169,4.18649 12.9393,4.18649 C13.8597,4.18649 14.9595,4.27397 16.0593,4.53931 L19.4174,6.33548 L18.794,2.27077 C16.9238,1.68177 14.8418,1.29688 12.6129,1.29688 C6.93749,1.29688 2.86475,4.86297 2.86475,11.5228 C2.86475,18.1826 6.9963,21.8974 12.9687,21.8974 M25.3339,21.3959 L30.3859,21.3959 L29.8213,18.5675 L29.8213,12.8787 L39.243,12.8787 L39.243,18.5675 L38.6784,21.3959 L43.701,21.3959 L43.1658,18.5675 L43.1658,4.65886 L43.701,1.83048 L38.6784,1.83048 L39.243,4.65886 L39.243,10.0532 L29.8213,10.0532 L29.8213,4.65886 L30.3859,1.83048 L25.3339,1.83048 L25.8985,4.65886 L25.8985,18.5675 L25.3339,21.3959 Z M60.0743,1.83048 L54.9047,1.83048 L55.6163,3.45169 L47.9796,21.3988 L52.2581,21.3988 L52.614,18.8649 L53.2374,17.3895 L62.4209,17.3895 L63.0149,18.8649 L63.3736,21.3988 L68.2756,21.3988 L60.0713,1.83048 L60.0743,1.83048 Z M54.3989,14.6486 L57.8453,6.36755 L61.2623,14.6486 L54.3989,14.6486 Z M72.5248,21.3959 L77.9326,21.3959 L77.0122,18.5675 L77.0122,14.6194 L81.9759,14.6194 C87.1455,14.6194 89.3157,12.5579 89.3157,8.25412 C89.3157,3.95031 87.1455,1.83048 82.0936,1.83048 L72.5248,1.83048 L73.0894,4.65886 L73.0894,18.5675 L72.5248,21.3959 Z M76.9828,11.9368 L76.9828,4.54223 L81.4995,4.54223 C84.3225,4.54223 85.4517,5.72023 85.4517,8.34451 C85.4517,10.9688 84.3225,11.9398 81.4084,11.9398 L76.9798,11.9398 L76.9828,11.9368 Z M94.6941,21.3959 L99.746,21.3959 L99.1814,18.5675 L99.1814,4.65886 L99.746,1.83048 L94.6941,1.83048 L95.2587,4.65886 L95.2587,18.5675 L94.6941,21.3959 Z M119.122,4.6297 L122.006,5.33534 L121.442,1.82756 L105.366,1.82756 L104.83,5.33534 L107.715,4.6297 L111.458,4.6297 L111.458,18.5675 L110.538,21.3959 L116.302,21.3959 L115.381,18.5675 L115.381,4.6297 L119.125,4.6297 L119.122,4.6297 Z M139.418,13.144 C142.508,12.4355 144.023,10.4323 144.023,7.72343 C144.023,3.92115 141.794,1.82756 136.892,1.82756 L127.085,1.82756 L127.649,4.65594 L127.649,18.5646 L127.085,21.393 L132.196,21.393 L131.572,18.5646 L131.572,13.8496 L135.524,13.8496 L139.327,19.0953 L139.891,21.393 L145.625,21.393 L139.415,13.1411 L139.418,13.144 Z M131.484,11.0533 L131.484,4.42268 L136.298,4.42268 C138.974,4.42268 140.162,5.57152 140.162,7.75259 C140.162,9.93365 138.586,11.0533 135.913,11.0533 L131.484,11.0533 Z M163.431,18.6841 L154.815,18.6841 L154.815,12.7329 L160.937,12.7329 L163.104,13.0857 L163.104,9.72662 L160.937,10.0794 L154.815,10.0794 L154.815,4.53931 L163.225,4.53931 L166.077,5.24495 L165.542,1.82756 L150.357,1.82756 L150.921,4.65594 L150.921,18.5646 L150.357,21.393 L165.751,21.393 L166.286,17.9727 L163.434,18.6812 L163.431,18.6841 Z" id="Shape" fill-rule="nonzero"></path><polygon id="Path" fill-rule="nonzero" points="9.88477 47.8707 16.2012 47.8707 14.3721 45.0423 14.3721 31.2532 16.2012 28.4248 9.88477 28.4248 11.7138 31.2532 11.7138 45.0423"></polygon><polygon id="Path" fill-rule="nonzero" points="21.9019 47.8707 28.2183 47.8707 26.3892 45.0423 26.3892 31.2532 28.2183 28.4248 21.9019 28.4248 23.7309 31.2532 23.7309 45.0423"></polygon><polygon id="Path" fill-rule="nonzero" points="33.9121 47.8707 40.2285 47.8707 38.3995 45.0423 38.3995 31.2532 40.2285 28.4248 33.9121 28.4248 35.7441 31.2532 35.7441 45.0423"></polygon><polygon id="Path" fill-rule="nonzero" points="128.929 47.8707 135.245 47.8707 133.416 45.0423 133.416 31.2532 135.245 28.4248 128.929 28.4248 130.758 31.2532 130.758 45.0423"></polygon><polygon id="Path" fill-rule="nonzero" points="140.939 47.8707 147.255 47.8707 145.426 45.0423 145.426 31.2532 147.255 28.4248 140.939 28.4248 142.768 31.2532 142.768 45.0423"></polygon><polygon id="Path" fill-rule="nonzero" points="152.956 47.8707 159.272 47.8707 157.443 45.0423 157.443 31.2532 159.272 28.4248 152.956 28.4248 154.788 31.2532 154.788 45.0423"></polygon><path d="M66.9726,48.3672 C72.2039,48.3672 75.0563,46.0695 75.0563,42.5909 C75.0563,39.3805 72.9479,37.6718 67.8371,36.3451 C64.0349,35.342 63.1409,34.4294 63.1409,32.8985 C63.1409,31.3677 64.7465,30.3938 67.2725,30.3938 C68.5811,30.3938 69.7985,30.5717 71.0453,30.9245 L74.4035,32.6332 L73.8095,28.7143 C71.4629,28.0961 69.3809,27.7725 66.9755,27.7725 C61.7736,27.7725 59.1299,30.0118 59.1299,33.2251 C59.1299,36.4384 61.1796,38.115 66.1433,39.4126 C69.9484,40.4127 71.0453,41.2671 71.0453,42.9787 C71.0453,44.6903 69.6191,45.7487 66.7667,45.7487 C65.3405,45.7487 63.9731,45.5125 62.4264,45.0693 L58.98,43.1857 L59.6034,47.2825 C61.2384,47.6644 63.6144,48.3438 66.9726,48.373 M80.8199,47.8365 L85.8718,47.8365 L85.3072,45.0081 L85.3072,31.0995 L85.8718,28.2711 L80.8199,28.2711 L81.3845,31.0995 L81.3845,45.0081 L80.8199,47.8365 Z M89.9711,47.8365 L95.1436,47.8365 L95.9758,44.9789 L99.7192,39.9112 L103.433,44.9789 L104.236,47.8365 L110.179,47.8365 L102.542,37.7301 L109.585,28.2711 L104.533,28.2711 L103.701,31.1286 L100.493,35.6074 L97.2226,31.1286 L96.3904,28.2711 L90.5945,28.2711 L97.6666,37.701 L89.9711,47.8365 Z" id="Shape" fill-rule="nonzero"></path></g></g></svg>