<?xml version="1.0" encoding="UTF-8"?>
<svg xmlns="http://www.w3.org/2000/svg" viewBox="0 0 259.22 88.55">
  <defs>
    <style>
      .cls-1 {
        isolation: isolate;
      }

      .cls-2 {
        fill-rule: evenodd;
      }

      .cls-2, .cls-3 {
        fill: #002445;
      }

      .cls-4 {
        fill: #a71923;
        mix-blend-mode: multiply;
      }
    </style>
  </defs>
  <g class="cls-1">
    <g id="Calque_2" data-name="Calque 2">
      <g id="Calque_1-2" data-name="Calque 1">
        <g>
          <path class="cls-2" d="M10.3,16.99H.55c-.31,0-.55,.26-.55,.55v51.89c0,.3,.24,.55,.55,.55H10.3c.3,0,.55-.26,.55-.55V17.54c0-.3-.26-.55-.55-.55Z"/>
          <path class="cls-2" d="M124.16,16.99h-9.75c-.3,0-.55,.26-.55,.55v51.89c0,.3,.26,.55,.55,.55h9.75c.3,0,.55-.26,.55-.55V17.54c0-.3-.26-.55-.55-.55Z"/>
          <path class="cls-2" d="M243.27,75.54l-8.33-10.43-2.89-3.61c-.07-.09-.33,0-.55,.2l-7.63,6.08c-.23,.2-.37,.41-.3,.5l1.37,1.73,4.55,5.68,5.66,7.06c.06,.09,.31,0,.54-.18l7.63-6.09c.23-.18,.37-.41,.3-.5l-.34-.43Z"/>
          <path class="cls-2" d="M102.6,39.71v29.72c0,.3-.24,.55-.55,.55h-9.75c-.3,0-.54-.26-.54-.55v-29.72c0-6.52-5.36-11.86-11.88-11.86s-11.86,5.34-11.86,11.86v29.72c0,.3-.26,.55-.55,.55h-9.75c-.3,0-.55-.26-.55-.55v-29.72c0-5.47-3.76-10.11-8.82-11.47-.96-.26-2-.4-3.05-.4-6.52,0-11.88,5.34-11.88,11.86v29.72c0,.3-.24,.55-.54,.55h-9.75c-.31,0-.55-.26-.55-.55v-29.72c0-12.5,10.22-22.72,22.72-22.72,1.02,0,2.04,.07,3.05,.21,5.27,.71,10.16,3.27,13.78,7.27,.11,.14,.28,.21,.47,.21s.35-.07,.48-.21c4.29-4.75,10.39-7.48,16.81-7.48,12.5,0,22.72,10.22,22.72,22.72Z"/>
          <path class="cls-2" d="M162.31,28.14c5.39,1.21,9.28,6.05,9.28,11.58v29.72c0,.3,.25,.55,.55,.55h9.75c.3,0,.55-.25,.55-.55v-29.72c0-11.17-8.23-20.75-19.26-22.46-1.14-.18-2.3-.26-3.46-.26s-2.31,.09-3.46,.26c-11.03,1.7-19.26,11.29-19.26,22.46v29.72c0,.3,.25,.55,.55,.55h9.75c.3,0,.55-.25,.55-.55v-29.72c0-5.53,3.89-10.37,9.28-11.58,.85-.19,1.72-.29,2.59-.29s1.74,.1,2.59,.29h0Z"/>
          <path class="cls-2" d="M245.43,78.22l-1.81-2.25-.34-.43-3.95-4.92c-.2-.23-.54-.27-.78-.09-.44,.37-.91,.71-1.36,1.05-2.38,1.71-4.96,3.09-7.68,4.1-2.34,.86-4.78,1.47-7.29,1.77-1.33,.17-2.66,.24-4.01,.24s-2.68-.07-4.01-.24c-5.41-.67-10.55-2.68-14.97-5.87-.45-.34-.92-.68-1.36-1.05-.24-.18-.58-.14-.78,.09l-6.11,7.6c-.2,.24-.16,.6,.09,.78,6.26,5.06,13.79,8.23,21.8,9.23,1.77,.21,3.56,.33,5.34,.33s3.57-.11,5.34-.33c7.99-.99,15.53-4.17,21.8-9.23,.24-.18,.28-.54,.09-.78Zm-23.84-61.88c-1.12-.14-2.25-.21-3.39-.21s-2.27,.07-3.39,.21c-13.69,1.69-23.97,13.37-23.97,27.14s10.28,25.46,23.97,27.14c1.12,.14,2.25,.21,3.39,.21s2.27-.07,3.39-.21c1.15-.14,2.27-.35,3.36-.62,3.7-.94,7.09-2.62,9.99-4.89,6.49-5.03,10.62-12.91,10.62-21.63,0-13.78-10.29-25.46-23.97-27.14Zm-.67,43.41c-.89,.16-1.81,.23-2.72,.23s-1.83-.07-2.72-.23l-.23-.03c-7.85-1.42-13.55-8.28-13.55-16.24s5.83-14.95,13.78-16.27c.89-.16,1.81-.23,2.72-.23s1.83,.07,2.72,.23l.21,.03c7.85,1.4,13.56,8.28,13.56,16.24s-5.83,14.95-13.78,16.27Z"/>
          <path class="cls-4" d="M241.97,6l-5,7.89c-.21,.34-.11,.77,.22,.99,5.21,3.47,9.42,8.32,12.1,14.03,.17,.36,.59,.52,.95,.36l8.55-3.79c.37-.17,.54-.61,.37-.98-3.55-7.64-9.18-14.12-16.16-18.73-.34-.23-.81-.12-1.02,.22Z"/>
          <path class="cls-3" d="M8.56,5.59h1.52v4.31c-.55,.45-1.19,.8-1.91,1.04-.73,.24-1.49,.36-2.28,.36-1.12,0-2.12-.24-3.02-.73-.9-.49-1.6-1.16-2.11-2.02-.51-.86-.77-1.83-.77-2.9S.25,3.61,.77,2.75C1.28,1.89,1.98,1.21,2.88,.73c.9-.48,1.91-.73,3.04-.73,.88,0,1.69,.14,2.41,.43s1.34,.71,1.84,1.27l-.98,.98c-.88-.85-1.95-1.28-3.21-1.28-.84,0-1.6,.18-2.27,.55-.67,.36-1.19,.87-1.57,1.52s-.57,1.38-.57,2.19,.19,1.52,.57,2.17,.9,1.16,1.57,1.52c.67,.37,1.42,.55,2.25,.55,.99,0,1.85-.24,2.59-.71v-3.6Z"/>
          <path class="cls-3" d="M20.3,11.19l-2.39-3.4c-.3,.02-.53,.03-.7,.03h-2.73v3.37h-1.58V.13h4.31c1.43,0,2.56,.34,3.38,1.03,.82,.68,1.23,1.63,1.23,2.83,0,.85-.21,1.58-.63,2.18-.42,.6-1.02,1.04-1.8,1.31l2.62,3.71h-1.72Zm-.84-5.36c.53-.43,.79-1.05,.79-1.85s-.26-1.41-.79-1.84c-.53-.43-1.29-.64-2.29-.64h-2.69V6.48h2.69c1,0,1.76-.22,2.29-.65Z"/>
          <path class="cls-3" d="M26.18,10.58c-.9-.49-1.6-1.17-2.11-2.03-.51-.86-.77-1.83-.77-2.89s.25-2.03,.77-2.89c.51-.86,1.21-1.54,2.11-2.03,.9-.49,1.9-.73,3.02-.73s2.11,.25,3,.73c.9,.49,1.6,1.16,2.1,2.02s.76,1.82,.76,2.9-.25,2.04-.76,2.9-1.21,1.53-2.1,2.02c-.9,.49-1.9,.73-3,.73s-2.12-.24-3.02-.73Zm5.21-1.22c.65-.37,1.16-.88,1.53-1.52,.37-.65,.56-1.37,.56-2.17s-.19-1.52-.56-2.17c-.37-.65-.89-1.16-1.53-1.52-.65-.37-1.38-.55-2.19-.55s-1.55,.18-2.2,.55c-.66,.37-1.17,.88-1.55,1.52-.37,.65-.56,1.37-.56,2.17s.19,1.52,.56,2.17,.89,1.16,1.55,1.52c.66,.37,1.39,.55,2.2,.55s1.54-.18,2.19-.55Z"/>
          <path class="cls-3" d="M38.43,10.05c-.82-.84-1.23-2.05-1.23-3.63V.13h1.58V6.35c0,2.37,1.04,3.56,3.11,3.56,1.01,0,1.79-.29,2.32-.88s.81-1.48,.81-2.68V.13h1.53V6.42c0,1.59-.41,2.8-1.23,3.64-.82,.84-1.97,1.26-3.44,1.26s-2.62-.42-3.44-1.26Z"/>
          <path class="cls-3" d="M57.29,1.15c.82,.68,1.23,1.63,1.23,2.83s-.41,2.14-1.23,2.83c-.82,.68-1.95,1.03-3.38,1.03h-2.73v3.35h-1.58V.13h4.31c1.43,0,2.56,.34,3.38,1.03Zm-1.14,4.67c.53-.43,.79-1.04,.79-1.84s-.26-1.41-.79-1.84c-.53-.43-1.29-.64-2.29-.64h-2.69V6.46h2.69c1,0,1.76-.21,2.29-.64Z"/>
          <path class="cls-3" d="M68.68,9.81v1.37h-8.03V.13h7.81V1.5h-6.23v3.4h5.55v1.34h-5.55v3.57h6.45Z"/>
        </g>
      </g>
    </g>
  </g>
</svg>