<?xml version="1.0" encoding="UTF-8"?>
<svg id="svg834" version="1.1" viewBox="0 0 828.2 134.2" xmlns="http://www.w3.org/2000/svg">
 <g id="g1395" fill="#000000">
  <g id="g1366">
   <path id="path1045" d="m799.09961 100.30078v33.5h5.80078v-12.20117h7.09961l9.19922 12.30078h7l-10.09961-13.40039c2.3-0.6 4.10039-1.79961 5.40039-3.59961s2-3.79961 2-6.09961c0-1.4-0.19961-2.70039-0.59961-3.90039s-1.1-2.30078-2-3.30078-2.29961-1.80039-4.09961-2.40039-4-0.89844-6.5-0.89844zm5.90039 5.39844h7.19922c2.7 0 4.50117 0.50078 5.70117 1.30078 1.1 0.9 1.69922 2.09922 1.69922 3.69922 0 1.7-0.70039 3.00039-1.90039 3.90039-1.3 0.9-2.99922 1.40039-5.19922 1.40039h-7.5z"/>
   <path id="path1041" d="m760.8 133.8v-33.5h24.9v5.5h-19.1v8.4h17.9v5.3h-17.9v8.9h19.6v5.5h-25.4z"/>
   <path id="path1039" d="m712.8 133.8v-33.5h5.1l12.2 15.8 11.7-15.8h4.7v33.5h-5.8v-23.2l-10.2 13.3h-1.5l-10.5-13.4v23.3z"/>
  </g>
  <g id="g1361">
   <path id="path1037" d="m655.7 133.8v-33.5h24.9v5.5h-19.1v8.4h17.9v5.3h-17.9v8.9h19.6v5.5h-25.4z"/>
   <path id="path1035" d="m613.90039 100.30078v33.5996h9.90039c6.5 0 11.29961-1.60078 14.59961-4.80078 3.3-3.1 4.90039-7.30039 4.90039-12.40039 0-2.3-0.3-4.39883-1-6.29883s-1.80117-3.70117-3.20117-5.20117-3.40039-2.69961-5.90039-3.59961-5.39883-1.29883-8.79883-1.29883zm5.79883 5.39844h4.60156c8.6 0 12.89844 3.70039 12.89844 10.90039 0 3.6-1.09922 6.49961-3.19922 8.59961s-5.40078 3.10156-9.80078 3.10156h-4.5z"/>
  </g>
  <g id="g1357">
   <path id="path1031" d="m576.9 124.7c0-1-0.4-1.9-1.1-2.6s-1.8-1.2-3-1.6-2.6-0.7-4-1.2c-1.5-0.4-2.9-0.8-4.4-1.3-1.5-0.4-2.8-1-4-1.6-1.2-0.7-2.2-1.6-3-2.8s-1.1-2.6-1.1-4.3c0-2.7 1.2-4.9 3.7-6.7s5.6-2.8 9.4-2.8c5.5 0 9.9 1.6 13 4.8l-3.2 4.1c-2.8-2.3-6.1-3.5-10-3.5-2 0-3.6 0.3-5 1-1.3 0.7-2 1.6-2 2.9 0 1.1 0.5 2 1.5 2.7s2.3 1.2 3.8 1.6c1.5 0.3 3.2 0.8 5 1.3s3.5 1.1 5 1.7 2.8 1.6 3.9 2.9c1 1.3 1.5 2.9 1.5 4.8 0 2.9-1.2 5.3-3.7 7.1-2.5 1.9-5.5 2.8-9.2 2.8-2.9 0-5.8-0.6-8.5-1.7-2.7-1.2-4.8-2.6-6.3-4.4l3.4-4.1c3 3.2 7 4.8 11.8 4.8 2 0 3.6-0.4 4.7-1.1 1.2-0.5 1.8-1.5 1.8-2.8z"/>
   <path id="path1029" d="m543.2 133.8h-4.5l-18.5-22.8v22.8h-5.7v-33.5h4.6l18.4 22.9v-22.9h5.7z"/>
   <path id="path1027" d="m494.6 133.8v-33.5h5.8v33.5z"/>
   <path id="path1025" d="m464.69922 100.30078-14.69922 33.5h6l3.19922-7.40039h15.30078l3.19922 7.40039h6.10156l-14.70117-33.5zm2.10156 8.39844 5.5 12.70117h-11z"/>
   <path id="path1021" d="m413.59961 100.30078v33.5996h14c4.1 0 7.29961-0.80039 9.59961-2.40039s3.5-4.10039 3.5-7.40039c0-4.2-1.79922-6.80039-5.19922-7.90039 2.7-1.7 4-4.1 4-7.5 0-2.6-0.89922-4.69922-2.69922-6.19922s-4.8-2.19922-9-2.19922zm5.70117 5.39844h7.69922c2.4 0 4.1 0.4 5 1 0.9 0.7 1.40039 1.70117 1.40039 3.20117 0 1.3-0.5 2.3-1.5 3s-2.40078 1.09961-4.30078 1.09961h-8.29883zm0.0996 13.70117h8.09962c2.5 0 4.3 0.29961 5.5 1.09961 1.1 0.7 1.69922 1.80078 1.69922 3.30078 0 1.6-0.59883 2.8-1.79883 3.5s-3.10117 1.09961-5.70117 1.09961h-7.79883z"/>
  </g>
  <g id="g1350">
   <path id="path1015" d="m376.5 124.7c0-1-0.4-1.9-1.1-2.6-0.8-0.7-1.8-1.2-3-1.6s-2.6-0.7-4-1.2c-1.5-0.4-2.9-0.8-4.4-1.3-1.5-0.4-2.8-1-4-1.6-1.2-0.7-2.2-1.6-3-2.8s-1.1-2.6-1.1-4.3c0-2.7 1.2-4.9 3.7-6.7s5.6-2.8 9.4-2.8c5.5 0 9.9 1.6 13 4.8l-3.2 4.1c-2.8-2.3-6.1-3.5-10-3.5-2 0-3.6 0.3-5 1-1.3 0.7-2 1.6-2 2.9 0 1.1 0.5 2 1.5 2.7s2.3 1.2 3.8 1.6c1.5 0.3 3.2 0.8 5 1.3s3.5 1.1 5 1.7 2.8 1.6 3.9 2.9c1 1.3 1.5 2.9 1.5 4.8 0 2.9-1.2 5.3-3.7 7.1-2.5 1.9-5.5 2.8-9.2 2.8-2.9 0-5.8-0.6-8.5-1.7-2.7-1.2-4.8-2.6-6.3-4.4l3.5-4.1c3 3.2 7 4.8 11.8 4.8 2 0 3.6-0.4 4.7-1.1 1.2-0.5 1.7-1.5 1.7-2.8z"/>
   <path id="path1013" d="m318.7 133.8v-33.5h24.9v5.5h-19.1v8.4h17.9v5.3h-17.9v8.9h19.6v5.5h-25.4z"/>
   <path id="path1011" d="m276.90039 100.30078v33.5996h9.90039c6.5 0 11.29961-1.60078 14.59961-4.80078 3.3-3.1 4.90039-7.30039 4.90039-12.40039 0-2.3-0.3-4.39883-1-6.29883s-1.80117-3.70117-3.20117-5.20117-3.40039-2.69961-5.90039-3.59961-5.39883-1.29883-8.79883-1.29883zm5.79883 5.39844h4.60156c8.6 0 12.89844 3.70039 12.89844 10.90039 0 3.6-1.09922 6.49961-3.19922 8.59961s-5.40078 3.10156-9.80078 3.10156h-4.5z"/>
  </g>
  <g id="g1345">
   <path id="path1007" d="m239.3 91.7-4.6 5.5h-4.9l4.4-7.3z"/>
   <path id="path1005" d="m219.7 133.8v-33.5h24.9v5.5h-19.1v8.4h17.9v5.3h-17.9v8.9h19.6v5.5h-25.4z"/>
   <path id="path1003" d="m180.5 105.7v-5.5h28.3v5.5h-11.3v28.1h-5.8v-28.1z"/>
   <path id="path1001" d="m165.7 91.7-4.6 5.5h-4.9l4.4-7.3z"/>
   <path id="path999" d="m145.5 133.8v-33.5h24.9v5.5h-19.1v8.4h17.9v5.3h-17.9v8.9h19.6v5.5h-25.4z"/>
   <path id="path997" d="m125.5 133.8v-33.5h5.8v33.5z"/>
   <path id="path995" d="m110.5 124.2 3.4 3.7c-1.4 1.9-3.3 3.5-5.7 4.6s-5.1 1.7-7.9 1.7c-5.3 0-9.5-1.6-12.6-4.7s-4.7-7.3-4.7-12.5c0-4.9 1.6-9 4.7-12.2 3.2-3.3 7.3-4.9 12.4-4.9 2.9 0 5.6 0.5 7.9 1.6s4.1 2.5 5.3 4.2l-3.8 3.6c-2.3-2.6-5.4-3.9-9.1-3.9-3.5 0-6.2 1.1-8.3 3.2s-3.1 4.9-3.1 8.4 1.1 6.3 3.2 8.4c2.2 2.1 5 3.2 8.4 3.2 4.2 0 7.5-1.4 9.9-4.4z"/>
   <path id="path993" d="m55.300781 99.900391c-4.8 0-8.901172 1.699999-12.201172 4.999999s-5 7.39922-5 12.19922c0 4.9 1.7 9.00117 5 12.20117 3.4 3.3 7.401172 4.89844 12.201172 4.89844s8.899219-1.59844 12.199219-4.89844c3.3-3.2 5-7.30117 5-12.20117 0-5-1.7-8.99883-5-12.29883s-7.399219-4.900389-12.199219-4.900389zm0.09961 5.599609c3 0 5.598828 1.10078 7.798828 3.30078 2.2 2.1 3.300781 4.89883 3.300781 8.29883 0 3.5-1.099219 6.20039-3.199219 8.40039-2.1 2.1-4.70039 3.19922-7.90039 3.19922-3.1 0-5.700391-1.09883-7.900391-3.29883-2.2-2.1-3.300781-4.90078-3.300781-8.30078 0-3.5 1.100781-6.30039 3.300781-8.40039s4.800391-3.19922 7.900391-3.19922z"/>
   <path id="path989" d="m21.7 124.7c0-1-0.4-1.9-1.1-2.6-0.8-0.7-1.8-1.2-3-1.6s-2.6-0.7-4-1.2c-1.5-0.4-2.9-0.8-4.4-1.3-1.5-0.4-2.8-1-4-1.6-1.2-0.7-2.2-1.6-3-2.8-0.9-1.1-1.2-2.6-1.2-4.2 0-2.7 1.2-4.9 3.7-6.7s5.6-2.8 9.4-2.8c5.5 0 9.9 1.6 13 4.8l-3.2 4.1c-2.8-2.3-6.1-3.5-10-3.5-2 0-3.6 0.3-5 1-1.3 0.7-2 1.6-2 2.9 0 1.1 0.5 2 1.5 2.7s2.3 1.2 3.8 1.6c1.5 0.3 3.2 0.8 5 1.3s3.5 1.1 5 1.7 2.8 1.6 3.9 2.9c1 1.3 1.5 2.9 1.5 4.8 0 2.9-1.2 5.3-3.7 7.1-2.5 1.9-5.5 2.8-9.2 2.8-2.9 0-5.8-0.6-8.5-1.7-2.7-1.2-4.8-2.6-6.3-4.4l3.5-4.1c3 3.2 7 4.8 11.8 4.8 2 0 3.6-0.4 4.7-1.1 1.2-0.6 1.8-1.6 1.8-2.9z"/>
  </g>
 </g>
 <g id="g1319" fill="#000000">
  <path id="path987" d="m422.2098 34.658 13.435 13.435-13.435 13.4348-13.4348-13.4348z"/>
  <g id="g1304">
   <g id="g1334">
    <path id="path985" d="m787.90039 0.90039062c-22.2-0.2-39.30078 16.60000038-39.30078 38.50000038 0 21.8 16.70117 38.499609 38.70117 38.599609s38.69961-16.300781 39.09961-38.300781c0.4-21.4-16.7-38.5988284-38.5-38.79882838zm-0.5 14.00000038c13.1-0.1 22.69883 10.20039 22.79883 24.40039 0 14.3-9.4 24.59961-22.5 24.59961-13.1 0.1-22.79844-10.200782-22.89844-24.300782s9.49961-24.599218 22.59961-24.699218z"/>
    <path id="path981" d="m615 1.8007812v74.8984378h16.19922v-18.59961s-2.99883 3.91e-4 9.70117-0.09961l12.29883 18.699219h17.90039l-15-23.298828c13.2-5.6 13.90039-15.4 13.90039-25.5 0-5.7-1.30039-10.59961-3.90039-14.59961-2.6-4.0999988-5.79922-7.00078-9.69922-8.80078-3.8-1.8-8.10117-2.6992188-12.70117-2.6992188zm16.09961 14.6992188h9.20117c3.9 0 6.99844 1 9.39844 3 2.5 2 3.70117 5.000781 3.70117 8.800781s-1.39961 6.899219-4.09961 9.199219-6.30078 3.400391-10.80078 3.400391h-7.40039z"/>
    <path id="path977" d="m493.80078 1.0996094c-22.3 0-39.40039 16.1999996-39.40039 38.4999996 0 22.4 16.99922 38.400391 39.19922 38.400391 11 0 24-4.400391 31-16.900391l-12.19922-8.5c-4.6 7.6-11.10039 10.300782-18.90039 10.300782-12.5 0-22.19922-9.500782-22.19922-23.300782 0-13.3 9.19922-23.40039 22.19922-23.40039 6.4 0 13 2.60039 17.5 8.90039l12.40039-8.699218c-7.6-11.3000004-19.79961-15.3007816-29.59961-15.3007816z"/>
    <path id="path973" d="m689.3 1.8h16.1v61.3h34v13.6h-50.1z"/>
    <path id="path971" d="m565.09961 1.8007812-33.59961 74.8984378h16.30078l3-7.898438h30.09961l2.90039 7.898438h16.39844l-33.69922-74.8984378zm0.80078 28.6992188 9.09961 23.5h-18.40039z"/>
   </g>
   <g id="g1326">
    <path id="path967" d="m289.6 15.8h-21.2v-13.5h57.7v13.3h-21.1v61.1h-15.4z"/>
    <path id="path965" d="m343.2 76.8v-74.5h49.2v13.3h-33.5v23.5h29.3v13.5h-29.3v10.5h35v13.6c-17 0.1-33.8 0.1-50.7 0.1z"/>
    <path id="path963" d="m191.3 0.9c15.4 14.6 30.7 29.1 45.9 43.6v-42.1h13.7v76.6c-16.2-15.4-31.5-29.9-46.8-44.4v42.3h-13.9v-75c0.4-0.4 0.7-0.7 1.1-1z"/>
    <path id="path961" d="m133.09961 0.90039062c-22.2-0.19999999-39.298829 16.60000038-39.298829 38.50000038 0 21.8 16.699219 38.499609 38.699219 38.599609s38.69961-16.200781 39.09961-38.300781c0.4-21.4-16.7-38.5988284-38.5-38.79882838zm-0.5 14.09960938c13.1-0.1 22.70078 10.200391 22.80078 24.400391 0 14.2-9.39961 24.499609-22.59961 24.599609-13.1 0-22.80078-10.200781-22.80078-24.300781-0.1-14.1 9.49961-24.599219 22.59961-24.699219z"/>
    <path id="path832" d="m77.5 1.7v75h-14.6v-39c-7.9 9-15.3 17.4-23.1 26.3-7.9-9-15.2-17.3-22.9-26.2v38.9h-14.7v-76.8c13.2 14.4 25.4 27.8 37.9 41.4 12.3-13.6 24.4-26.9 36.4-40.3 0.3 0.2 0.7 0.5 1 0.7z"/>
   </g>
  </g>
 </g>
</svg>
