<svg xmlns="http://www.w3.org/2000/svg" xmlns:xlink="http://www.w3.org/1999/xlink" width="100" zoomAndPan="magnify" viewBox="0 0 75 74.999997" height="100" preserveAspectRatio="xMidYMid meet" version="1.0"><path fill="#ff914d" d="M 2.34375 12.171875 C 6.167969 9.6875 9.996094 7.210938 13.808594 4.714844 C 13.804688 22.359375 13.824219 40.003906 13.800781 57.648438 C 12.304688 58.644531 10.777344 59.601562 9.28125 60.605469 C 7.351562 61.804688 5.449219 63.046875 3.558594 64.316406 C 3.1875 64.574219 2.785156 64.789062 2.367188 64.964844 C 2.347656 47.367188 2.390625 29.769531 2.34375 12.171875 Z M 2.34375 12.171875 " fill-opacity="1" fill-rule="nonzero"/><path fill="#ff751f" d="M 13.808594 4.714844 C 30.679688 4.71875 47.546875 4.714844 64.417969 4.71875 C 66.175781 4.742188 67.875 6.128906 68.019531 7.925781 C 68.085938 11.085938 67.972656 14.253906 68.074219 17.414062 C 68.109375 29.511719 68.078125 41.613281 68.089844 53.710938 C 68.0625 55.035156 68.152344 56.359375 68.042969 57.683594 C 62.394531 57.738281 56.742188 57.691406 51.089844 57.707031 C 39.332031 57.707031 27.574219 57.707031 15.816406 57.707031 C 15.144531 57.71875 14.46875 57.722656 13.800781 57.648438 C 13.824219 40.003906 13.804688 22.359375 13.808594 4.71875 M 36.984375 15.722656 C 35.863281 18.960938 34.96875 22.277344 33.925781 25.539062 C 31.980469 31.910156 30.03125 38.28125 28.085938 44.648438 C 27.90625 45.15625 27.753906 45.675781 27.667969 46.207031 C 29.511719 46.238281 31.355469 46.25 33.199219 46.203125 C 33.90625 43.753906 34.621094 41.308594 35.304688 38.851562 C 35.375 38.632812 35.460938 38.425781 35.546875 38.214844 C 39.039062 38.226562 42.535156 38.171875 46.027344 38.246094 C 46.867188 40.90625 47.667969 43.578125 48.558594 46.222656 C 50.441406 46.230469 52.324219 46.246094 54.207031 46.210938 C 53.089844 42.464844 51.820312 38.765625 50.65625 35.03125 C 48.5625 28.605469 46.542969 22.152344 44.4375 15.730469 C 41.953125 15.667969 39.464844 15.679688 36.984375 15.722656 Z M 36.984375 15.722656 " fill-opacity="1" fill-rule="nonzero"/><path fill="#ff751f" d="M 40.636719 19.683594 C 40.996094 20.542969 41.140625 21.472656 41.429688 22.355469 C 42.496094 26.148438 43.625 29.929688 44.644531 33.734375 C 42.023438 33.773438 39.402344 33.773438 36.78125 33.734375 C 37.992188 29.03125 39.402344 24.378906 40.636719 19.683594 Z M 40.636719 19.683594 " fill-opacity="1" fill-rule="nonzero"/><path fill="#ffffff" d="M 36.984375 15.722656 C 39.464844 15.679688 41.953125 15.667969 44.4375 15.730469 C 46.542969 22.152344 48.5625 28.605469 50.65625 35.03125 C 51.820312 38.765625 53.089844 42.464844 54.207031 46.210938 C 52.324219 46.246094 50.441406 46.230469 48.558594 46.222656 C 47.667969 43.578125 46.867188 40.90625 46.027344 38.246094 C 42.535156 38.171875 39.039062 38.226562 35.546875 38.214844 C 35.460938 38.425781 35.371094 38.632812 35.304688 38.851562 C 34.621094 41.308594 33.90625 43.753906 33.199219 46.203125 C 31.355469 46.25 29.511719 46.238281 27.667969 46.207031 C 27.753906 45.675781 27.90625 45.15625 28.085938 44.648438 C 30.03125 38.28125 31.976562 31.910156 33.925781 25.539062 C 34.96875 22.277344 35.863281 18.960938 36.984375 15.722656 M 40.636719 19.683594 C 39.402344 24.378906 37.992188 29.03125 36.78125 33.734375 C 39.402344 33.773438 42.027344 33.769531 44.644531 33.734375 C 43.625 29.929688 42.496094 26.148438 41.429688 22.355469 C 41.140625 21.472656 40.996094 20.542969 40.636719 19.683594 Z M 40.636719 19.683594 " fill-opacity="1" fill-rule="nonzero"/><path fill="#a84d15" d="M 68.074219 17.414062 C 69.578125 17.230469 71.105469 17.324219 72.617188 17.351562 C 72.695312 21.332031 72.628906 25.320312 72.648438 29.304688 C 72.648438 42.011719 72.652344 54.722656 72.648438 67.429688 C 72.640625 68.375 72.683594 69.320312 72.621094 70.269531 C 53.015625 70.300781 33.414062 70.265625 13.808594 70.285156 C 12.648438 70.28125 11.371094 70.171875 10.464844 69.355469 C 9.789062 68.71875 9.261719 67.84375 9.285156 66.886719 C 9.28125 64.792969 9.28125 62.699219 9.28125 60.605469 C 10.777344 59.601562 12.304688 58.644531 13.800781 57.648438 C 14.46875 57.722656 15.144531 57.71875 15.816406 57.707031 C 27.574219 57.707031 39.332031 57.707031 51.089844 57.707031 C 56.742188 57.691406 62.394531 57.738281 68.042969 57.683594 C 68.152344 56.359375 68.0625 55.035156 68.089844 53.710938 C 68.078125 41.613281 68.109375 29.511719 68.074219 17.414062 Z M 68.074219 17.414062 " fill-opacity="1" fill-rule="nonzero"/></svg>