<svg xmlns="http://www.w3.org/2000/svg" xmlns:xlink="http://www.w3.org/1999/xlink" width="100" zoomAndPan="magnify" viewBox="0 0 75 74.999997" height="100" preserveAspectRatio="xMidYMid meet" version="1.0"><path fill="#ff751f" d="M 2.984375 26.148438 L 6.914062 26.148438 C 12.988281 26.148438 17.929688 28.914062 17.929688 37.203125 C 17.929688 45.535156 12.910156 48.648438 5.203125 48.648438 L 2.984375 48.648438 Z M 0.300781 50.984375 L 5.046875 50.984375 C 14.039062 50.984375 20.617188 47.207031 20.617188 37.359375 C 20.617188 29.417969 16.765625 23.816406 7.035156 23.816406 L 0.300781 23.816406 Z M 0.300781 50.984375 " fill-opacity="1" fill-rule="evenodd"/><path fill="#ff751f" d="M 25.246094 50.984375 L 27.929688 50.984375 L 27.929688 23.816406 L 25.246094 23.816406 Z M 25.246094 50.984375 " fill-opacity="1" fill-rule="nonzero"/><path fill="#ff751f" d="M 32.160156 50.984375 L 34.769531 50.984375 L 37.6875 43.703125 L 51.390625 43.703125 L 54.308594 50.984375 L 57.109375 50.984375 L 46.328125 23.816406 L 43.292969 23.816406 Z M 50.492188 41.367188 L 38.699219 41.367188 L 44.617188 26.382812 Z M 50.492188 41.367188 " fill-opacity="1" fill-rule="evenodd"/><path fill="#ff751f" d="M 61.117188 50.984375 L 74.699219 50.984375 L 74.699219 48.648438 L 63.804688 48.648438 L 63.804688 23.816406 L 61.117188 23.816406 Z M 61.117188 50.984375 " fill-opacity="1" fill-rule="nonzero"/></svg>