<svg xmlns="http://www.w3.org/2000/svg" xmlns:xlink="http://www.w3.org/1999/xlink" width="100" zoomAndPan="magnify" viewBox="0 0 75 74.999997" height="100" preserveAspectRatio="xMidYMid meet" version="1.0"><path fill="#ff751f" d="M 43.21875 0 L 1.21875 7.96875 C 0.46875 8.121094 0 8.871094 0 9.46875 L 0 65.390625 C 0 66.140625 0.46875 66.738281 1.21875 66.890625 L 43.21875 74.859375 L 43.5 74.859375 C 43.796875 74.859375 44.238281 74.683594 44.390625 74.53125 C 44.6875 74.230469 45 73.808594 45 73.359375 L 45 1.5 C 45 1.046875 44.839844 0.578125 44.390625 0.28125 C 44.089844 -0.0195312 43.667969 0 43.21875 0 Z M 48 9 L 48 19.5 L 60 19.5 L 60 34.5 L 66 34.5 L 58.5 42 L 51 34.5 L 57 34.5 L 57 22.5 L 48 22.5 L 48 41.25 L 54.75 48 L 48 54.75 L 48 66 L 70.5 66 C 72.152344 66 73.5 64.652344 73.5 63 L 73.5 12 C 73.5 10.347656 72.152344 9 70.5 9 Z M 13.78125 23.53125 L 23.71875 23.53125 C 30.765625 23.53125 34.359375 26.53125 34.359375 32.53125 C 34.207031 35.230469 33.316406 37.480469 31.21875 39.28125 C 29.121094 41.078125 26.40625 41.859375 23.109375 41.859375 L 20.109375 41.859375 L 20.109375 51.46875 L 13.78125 51.46875 Z M 19.96875 28.359375 L 19.96875 37.03125 L 22.5 37.03125 C 25.796875 37.03125 27.609375 35.566406 27.609375 32.71875 C 27.609375 29.871094 25.949219 28.359375 22.5 28.359375 Z M 19.96875 28.359375 " fill-opacity="1" fill-rule="nonzero"/></svg>