<svg xmlns="http://www.w3.org/2000/svg" xmlns:xlink="http://www.w3.org/1999/xlink" width="100" zoomAndPan="magnify" viewBox="0 0 75 74.999997" height="100" preserveAspectRatio="xMidYMid meet" version="1.0"><path fill="#a84d15" d="M 72.65625 70.246094 L 12.929688 70.246094 C 10.902344 70.246094 9.257812 68.601562 9.257812 66.570312 L 9.257812 17.359375 L 72.65625 17.359375 Z M 72.65625 70.246094 " fill-opacity="1" fill-rule="nonzero"/><path fill="#ff751f" d="M 13.808594 4.753906 L 64.421875 4.753906 C 66.449219 4.753906 68.09375 6.398438 68.09375 8.429688 L 68.09375 57.640625 L 13.808594 57.640625 Z M 13.808594 4.753906 " fill-opacity="1" fill-rule="nonzero"/><path fill="#ff914d" d="M 2.34375 65.082031 L 13.808594 57.640625 L 13.808594 4.753906 L 2.34375 12.195312 Z M 2.34375 65.082031 " fill-opacity="1" fill-rule="nonzero"/><path fill="#ffffff" d="M 35.1875 31.027344 L 39.597656 31.027344 C 40.984375 31.101562 42.253906 30.753906 43.40625 29.980469 C 43.871094 29.628906 44.230469 29.191406 44.480469 28.660156 C 44.730469 28.132812 44.839844 27.578125 44.8125 26.992188 L 44.8125 24.890625 C 44.839844 24.308594 44.730469 23.753906 44.480469 23.226562 C 44.230469 22.699219 43.875 22.261719 43.40625 21.914062 C 42.253906 21.136719 40.984375 20.785156 39.597656 20.859375 L 35.1875 20.859375 Z M 51.789062 42.84375 L 51.789062 46.285156 C 51.0625 46.585938 50.304688 46.726562 49.515625 46.710938 C 48.445312 46.738281 47.453125 46.480469 46.535156 45.933594 C 45.5625 45.277344 44.835938 44.414062 44.351562 43.347656 L 40.007812 34.976562 L 35.1875 34.976562 L 35.1875 46.285156 L 29.886719 46.285156 L 29.886719 16.863281 L 39.804688 16.863281 C 41.136719 16.800781 42.441406 16.949219 43.71875 17.3125 C 45 17.675781 46.191406 18.230469 47.289062 18.984375 C 48.207031 19.640625 48.914062 20.476562 49.414062 21.488281 C 49.914062 22.5 50.144531 23.570312 50.109375 24.699219 L 50.109375 27.132812 C 50.125 28.640625 49.667969 29.984375 48.734375 31.167969 C 47.734375 32.433594 46.480469 33.359375 44.976562 33.949219 L 48.886719 41.429688 C 49.125 41.894531 49.472656 42.257812 49.929688 42.519531 C 50.386719 42.777344 50.875 42.890625 51.398438 42.859375 Z M 51.789062 42.84375 " fill-opacity="1" fill-rule="nonzero"/></svg>